<svg xmlns="http://www.w3.org/2000/svg" width="54.603" height="40.5" viewBox="0 0 54.603 40.5"><defs><style>.a{fill:#161328;}</style></defs><path class="a" d="M308.9,164.317a1.6,1.6,0,0,1-.2-3.186,34.941,34.941,0,0,0,12.746-3.858c2.894-1.686,4.487-3.668,4.487-5.581,0-2.108-1.865-3.833-3.429-4.91a1.6,1.6,0,1,1,1.813-2.636c3.15,2.167,4.815,4.776,4.815,7.546,0,3.144-2.1,6.029-6.076,8.345A37.6,37.6,0,0,1,309.1,164.3,1.7,1.7,0,0,1,308.9,164.317Zm0,0" transform="translate(-274.529 -128.522)"/><path class="a" d="M26.911,156.51l-4.266-4.266a1.6,1.6,0,0,0-2.262,2.262l1.246,1.246A38.543,38.543,0,0,1,9.147,152.53C5.367,150.712,3.2,148.4,3.2,146.177c0-1.883,1.552-3.839,4.37-5.51a1.6,1.6,0,1,0-1.631-2.752C1.03,140.824,0,144.014,0,146.177c0,3.549,2.756,6.829,7.761,9.237a42.569,42.569,0,0,0,14.383,3.6l-1.76,1.76a1.6,1.6,0,0,0,2.262,2.262l4.266-4.266A1.6,1.6,0,0,0,26.911,156.51Zm0,0" transform="translate(0 -123.007)"/><path class="a" d="M100.234,100.487V100.1c0-1.358-.831-1.621-1.945-1.621-.689,0-.912-.608-.912-1.216s.223-1.216.912-1.216c.77,0,1.581-.1,1.581-1.743,0-1.175-.669-1.459-1.5-1.459-.993,0-1.5.243-1.5,1.034,0,.689-.3,1.155-1.479,1.155-1.459,0-1.641-.3-1.641-1.277,0-1.58,1.134-3.627,4.62-3.627,2.574,0,4.519.932,4.519,3.668,0,1.479-.547,2.857-1.56,3.323a2.937,2.937,0,0,1,2.067,2.979v.385c0,3.323-2.29,4.58-5.126,4.58-3.485,0-4.822-2.128-4.822-3.83,0-.912.385-1.155,1.5-1.155,1.3,0,1.621.284,1.621,1.054,0,.952.892,1.175,1.8,1.175C99.747,102.311,100.234,101.8,100.234,100.487Zm0,0" transform="translate(-83.48 -80.521)"/><path class="a" d="M218.723,100.1v.182c0,3.485-2.168,4.782-4.964,4.782s-4.985-1.3-4.985-4.782v-5.37c0-3.485,2.249-4.782,5.167-4.782,3.424,0,4.782,2.128,4.782,3.809,0,.973-.466,1.276-1.479,1.276-.871,0-1.641-.223-1.641-1.155,0-.77-.81-1.175-1.763-1.175-1.2,0-1.905.628-1.905,2.026v1.823a3.241,3.241,0,0,1,2.533-.891C216.777,95.847,218.723,96.86,218.723,100.1Zm-6.788.405c0,1.4.689,2.006,1.824,2.006s1.8-.608,1.8-2.006v-.182c0-1.479-.669-2.047-1.824-2.047a1.626,1.626,0,0,0-1.8,1.864Zm0,0" transform="translate(-186.509 -80.521)"/><path class="a" d="M325.055,100.285v-5.37c0-3.485,2.168-4.782,4.964-4.782S335,91.43,335,94.915v5.37c0,3.485-2.188,4.782-4.984,4.782S325.055,103.77,325.055,100.285Zm6.788-5.37c0-1.4-.689-2.026-1.823-2.026s-1.8.628-1.8,2.026v5.37c0,1.4.669,2.026,1.8,2.026s1.823-.628,1.823-2.026Zm0,0" transform="translate(-290.389 -80.521)"/><path class="a" d="M414.151,9.6a4.8,4.8,0,1,1,4.8-4.8A4.8,4.8,0,0,1,414.151,9.6Zm0-6.4a1.6,1.6,0,1,0,1.6,1.6A1.6,1.6,0,0,0,414.151,3.2Zm0,0" transform="translate(-365.696)"/></svg>