<?xml version="1.0" encoding="utf-8"?><svg width="179" height="156" viewBox="0 0 179 156" xmlns="http://www.w3.org/2000/svg" xmlns:xlink="http://www.w3.org/1999/xlink"><svg data-name="Layer 1" width="21.04" height="21.07" viewBox="-2 -2 21.04 21.07" id="diamond-search-sprite.AS" y="134.38" xmlns="http://www.w3.org/2000/svg"><path d="M14.36 0H2.72L0 2.94v11.13l2.72 3h11.64l2.68-3V3.19zm-.22 11.89v-6.6l1.89-1.18v9zM1 13.12V3.89l1.89 1.24v6.76zm2.39-7.66l1.69 1.11v3.89l-1.69 1.1zm3.09 6.5h4.09l1.16 1.66h-6.4zm4.17-.5H6.4l-.78-.84a.25.25 0 0 0 0-.18v-4l.72-.82h.06a.25.25 0 0 0 .14 0h3.92a.25.25 0 0 0 .14 0h.05l.74.88a.24.24 0 0 0 0 .07v3.87a.24.24 0 0 0 0 .11zm-.08-6.37H6.48l-1.15-1.7h6.4zm1.22 1.09l-.75-.89 1.21-1.77 1.31 1.55zm.28-3.29H4.99L3.7 1h9.66zM6 5.27l-.75.81-1.76-1.16L4.81 3.5zm-.75 5.67l.75.82-1.2 1.77-1.32-1.43zm-.26 3.2h7.08l1.3 1.89H3.7zm6.05-2.38l.74-.82 1.77 1.15-1.29 1.43zm.91-1.3V6.62l1.7-1v6zm4.06-6.93l-2 1.27-1.47-1.71 1.39-2zM3.14 1.04l1.39 2-1.47 1.58-2-1.34zM1.02 13.71l2-1.33 1.45 1.58-1.39 2zM13.95 16l-1.4-2 1.43-1.58 2 1.33z" fill="#192852"/></svg><svg data-name="Layer 1" width="29.95" height="26.23" viewBox="-2 -2 29.95 26.23" id="diamond-search-sprite.AS-360" x="29.96" xmlns="http://www.w3.org/2000/svg"><path d="M13.6 15.78l4.52 3.1-4.52 3.35v-2.5h-.61c-6.3 0-11.53-1.34-12.73-3.17a1.45 1.45 0 0 1-.26-.83c0-1.2 1.72-2.28 4.44-3v.72c-1.75.53-2.84 1.2-2.84 1.95a.89.89 0 0 0 .14.43 2.7 2.7 0 0 0 1.21 1c1.89.91 5.56 1.53 9.79 1.53h.83zm11.66-1.31a9.5 9.5 0 0 0-3.79-1.74v.85a6.19 6.19 0 0 1 1.84.89 1.24 1.24 0 0 1 .58.92c0 .42-.34.81-.95 1.17a9.13 9.13 0 0 1-2.26.88v1.54c3.19-.73 5.27-1.9 5.27-3.22a1.8 1.8 0 0 0-.7-1.29z" fill="#f27a21"/><path data-name="Asscher360" d="M21.49 3.19L18.81 0H7.17L4.45 2.94v11.13l2 2.2a37.81 37.81 0 0 0 5.47.38h.83v-.62H8.16l1.29-1.89h7.04l1.3 1.89H15.6l1.46 1h1.78l2.68-3zm-1 .34l-2 1.27-1.5-1.71 1.39-2zM7.94 4.92L9.26 3.5l1.2 1.77-.75.81zm1.6 1.64v3.89l-1.69 1.1v-6.1zm.25-3.18h6.4l-1.17 1.7h-4.09zm.25 3.07l.76-.82h.06a.25.25 0 0 0 .14 0h3.92a.25.25 0 0 0 .14 0h.05l.74.88a.24.24 0 0 0 0 .07v3.87a.24.24 0 0 0 0 .11l-.78.87h-4.22l-.78-.84a.25.25 0 0 0 0-.18zm5.46-1.18l1.2-1.76 1.31 1.55-1.76 1.1zm.91 1.38L18.1 5.6v6l-1.69-1.1zM17.83.99l-1.3 1.89H9.44L8.15 1zM7.6 1.03l1.39 2-1.48 1.61-2-1.34zM5.45 3.89l1.89 1.24v6.76l-1.89 1.23zm2.15 12.1l-2.13-2.26 2-1.33 1.45 1.58zm1.68-2.46L7.96 12.1l1.77-1.15.75.82zm.53.11l1.15-1.69h4.09l1.16 1.69zm5.69-1.91l.74-.82 1.77 1.15-1.3 1.47zm2.9 4.23l-1.4-2 1.43-1.58 2 1.33zm2.09-2.88l-1.89-1.19v-6.6l1.89-1.18z" fill="#192852"/></svg><svg data-name="Layer 1" width="21.04" height="21.07" viewBox="-2 -2 21.04 21.07" id="diamond-search-sprite.AS-red" x="21.04" y="134.38" xmlns="http://www.w3.org/2000/svg"><path d="M14.36 0H2.72L0 2.94v11.13l2.72 3h11.64l2.68-3V3.19zm-.22 11.89v-6.6l1.89-1.18v9zM1 13.12V3.89l1.89 1.24v6.76zm2.39-7.66l1.69 1.11v3.89l-1.69 1.1zm3.09 6.5h4.09l1.16 1.66h-6.4zm4.17-.5H6.4l-.78-.84a.25.25 0 0 0 0-.18v-4l.72-.82h.06a.25.25 0 0 0 .14 0h3.92a.25.25 0 0 0 .14 0h.05l.74.88a.24.24 0 0 0 0 .07v3.87a.24.24 0 0 0 0 .11zm-.08-6.37H6.48l-1.15-1.7h6.4zm1.22 1.09l-.75-.89 1.21-1.77 1.31 1.55zm.28-3.29H4.99L3.7 1h9.66zM6 5.27l-.75.81-1.76-1.16L4.81 3.5zm-.75 5.67l.75.82-1.2 1.77-1.32-1.43zm-.26 3.2h7.08l1.3 1.89H3.7zm6.05-2.38l.74-.82 1.77 1.15-1.29 1.43zm.91-1.3V6.62l1.7-1v6zm4.06-6.93l-2 1.27-1.47-1.71 1.39-2zM3.14 1.04l1.39 2-1.47 1.58-2-1.34zM1.02 13.71l2-1.33 1.45 1.58-1.39 2zM13.95 16l-1.4-2 1.43-1.58 2 1.33z" fill="#EB1000"/></svg><svg data-name="Layer 1" width="21.04" height="21.07" viewBox="-2 -2 21.04 21.07" id="diamond-search-sprite.AS-white" x="42.08" y="134.38" xmlns="http://www.w3.org/2000/svg"><path d="M14.36 0H2.72L0 2.94v11.13l2.72 3h11.64l2.68-3V3.19zm-.22 11.89v-6.6l1.89-1.18v9zM1 13.12V3.89l1.89 1.24v6.76zm2.39-7.66l1.69 1.11v3.89l-1.69 1.1zm3.09 6.5h4.09l1.16 1.66h-6.4zm4.17-.5H6.4l-.78-.84a.25.25 0 0 0 0-.18v-4l.72-.82h.06a.25.25 0 0 0 .14 0h3.92a.25.25 0 0 0 .14 0h.05l.74.88a.24.24 0 0 0 0 .07v3.87a.24.24 0 0 0 0 .11zm-.08-6.37H6.48l-1.15-1.7h6.4zm1.22 1.09l-.75-.89 1.21-1.77 1.31 1.55zm.28-3.29H4.99L3.7 1h9.66zM6 5.27l-.75.81-1.76-1.16L4.81 3.5zm-.75 5.67l.75.82-1.2 1.77-1.32-1.43zm-.26 3.2h7.08l1.3 1.89H3.7zm6.05-2.38l.74-.82 1.77 1.15-1.29 1.43zm.91-1.3V6.62l1.7-1v6zm4.06-6.93l-2 1.27-1.47-1.71 1.39-2zM3.14 1.04l1.39 2-1.47 1.58-2-1.34zM1.02 13.71l2-1.33 1.45 1.58-1.39 2zM13.95 16l-1.4-2 1.43-1.58 2 1.33z" fill="#fff"/></svg><svg data-name="Layer 1" width="22.51" height="22.49" viewBox="-2 -2 22.51 22.49" id="diamond-search-sprite.CU" x="57" y="109.81" xmlns="http://www.w3.org/2000/svg"><path d="M17.77 4.133a5.88 5.88 0 0 0-4.4-3.75 19.55 19.55 0 0 0-4.12-.38 18.39 18.39 0 0 0-4.32.43 5.89 5.89 0 0 0-4.3 3.91 15.14 15.14 0 0 0-.62 4.9 17.25 17.25 0 0 0 .49 4.52 5.63 5.63 0 0 0 4.58 4.33 19.27 19.27 0 0 0 4.17.39 18.92 18.92 0 0 0 4.18-.39 5.64 5.64 0 0 0 4.45-4 15.32 15.32 0 0 0 .61-4.87 13 13 0 0 0-.72-5.09zm-.84 9.69v.08l-1.05-1.68 1.59-2a12.15 12.15 0 0 1-.52 3.53zm-7.68 3.67l-3.94-2.93 4-1.09 4 1.09-3.94 2.93zm-7.79-4a14.23 14.23 0 0 1-.43-3.27l1.59 2-1 1.7c-.07-.14-.12-.3-.15-.41zm.17-9l1 1.57-1.59 2.11a12 12 0 0 1 .53-3.49c.02-.06.05-.06.07-.16zm1.25 7.27l-1.86-2.34v-.39l1.86-2.48 1.61 2.64zm6.38-10.75h.22l3.75 2.79-4 1.09-4-1.09 3.75-2.79zm-4.27 12l2.95.33-3 .82zm8.57 1.14l-3-.82 2.95-.33zm-4.3-1.18L5 12.503l.07-3.25v-.13L5 5.873l4.26-.47 4.26.47-.07 3.25v.12l.07 3.25zm4.27-7.58l-2.95-.33 3-.82zm-8.57-1.16l3 .82-2.95.33zm11.92.33a10.18 10.18 0 0 1 .6 3.61l-1.6-2.08 1-1.55zm-1.23 2l1.85 2.49v.39l-1.89 2.34-1.57-2.58zm1-2.57l-2.68 4.33.14-6.7a5 5 0 0 1 2.51 2.36zm-3-2.5v2l-3.23-2.4a16.13 16.13 0 0 1 2.83.33c.07-.03.21.02.36.06zm-8.47-.08a15.15 15.15 0 0 1 3-.37l-3.23 2.4v-1.95zm-.77.21l.13 6.66-2.66-4.33a4.92 4.92 0 0 1 2.53-2.33zm-2.59 12.88l2.72-4.46-.14 6.84a4.65 4.65 0 0 1-2.58-2.38zm3.06 2.53v-2.1l3.42 2.54a16.48 16.48 0 0 1-3.09-.35c-.06-.02-.18-.06-.33-.09zm8.33.09a16 16 0 0 1-3.08.35l3.42-2.54v2.1zm.87-.25l-.14-6.83 2.71 4.45a4.65 4.65 0 0 1-2.54 2.38z" fill="#192852"/></svg><svg data-name="Layer 1" width="29.95" height="28.52" viewBox="-2 -2 29.95 28.52" id="diamond-search-sprite.CU-360" x="59.91" xmlns="http://www.w3.org/2000/svg"><path d="M13.59 18.064l4.51 3.07-4.51 3.39v-2.47h-.61c-6.28 0-11.52-1.38-12.72-3.22a1.45 1.45 0 0 1-.26-.8c0-1.2 1.72-2.28 4.44-3v.72c-1.76.51-2.85 1.19-2.85 1.93a.89.89 0 0 0 .14.43 2.7 2.7 0 0 0 1.21 1c1.89.91 5.56 1.53 9.79 1.53h.83zm11.66-1.31a9.5 9.5 0 0 0-3.78-1.73v.85a6.19 6.19 0 0 1 1.84.89 1.24 1.24 0 0 1 .58.92c0 .42-.34.81-.95 1.17a9.13 9.13 0 0 1-2.26.88v1.54c3.19-.73 5.27-1.9 5.27-3.22a1.8 1.8 0 0 0-.71-1.3z" fill="#f27a21"/><path data-name="Cushion360" d="M22.2 9.244a13 13 0 0 0-.73-5.11 5.88 5.88 0 0 0-4.4-3.75 19.55 19.55 0 0 0-4.12-.38 18.39 18.39 0 0 0-4.36.43 5.89 5.89 0 0 0-4.3 3.91 15.14 15.14 0 0 0-.62 4.9 17.25 17.25 0 0 0 .49 4.52 5.63 5.63 0 0 0 4.62 4.37 18.91 18.91 0 0 0 4 .39v-1.17l-3.77-2.8 4-1.09 4 1.09-3.42 2.45.44.3 3.19-2.38v2.1l-.38.09a14.91 14.91 0 0 1-2.65.33l1.31.9a12.36 12.36 0 0 0 1.64-.21 5.64 5.64 0 0 0 4.45-4 15.32 15.32 0 0 0 .61-4.89zm-9.24-8.24h.22l3.75 2.79-4 1.09-4-1.09 3.75-2.79zm-1.37 4.04l-2.95.33v-1.14zm-2.71-3.64a15.15 15.15 0 0 1 3-.37l-3.23 2.4v-1.95zm-3.6 3.28c0-.06 0-.11.06-.16l1 1.57-1.6 2.04a12 12 0 0 1 .54-3.45zm-.56 4.56v-.21l1.87-2.49 1.59 2.59-1.59 2.62-1.87-2.33v-.18zm.45 4.26a14.23 14.23 0 0 1-.43-3.27l1.59 2-1 1.7c-.08-.15-.13-.28-.16-.43zm2.94 3.37a4.65 4.65 0 0 1-2.58-2.38l2.72-4.46zM5.59 3.954a4.92 4.92 0 0 1 2.53-2.3l.13 6.66zm6.48 13.51a16.48 16.48 0 0 1-3.09-.33c-.13 0-.25-.06-.38-.09v-2.1zm-3.41-3.33v-1.14l2.95.33zm0-1.65l.07-3.25v-.1l-.07-3.25 4.26-.47 4.26.47-.03 3.25v.12l.07 3.25-4.26.47zm5.59.83l2.95-.33v1.14zm2.95-7.94l-2.95-.33 3-.82zm0-1.94l-3.23-2.4a16.13 16.13 0 0 1 2.83.33c.15 0 .3.07.44.11zm3.39 1.12a10.18 10.18 0 0 1 .6 3.61l-1.6-2.08 1-1.55zm-2.77-2.9a5 5 0 0 1 2.51 2.33l-2.65 4.34zm0 15.21l-.14-6.83 2.71 4.45a4.65 4.65 0 0 1-2.58 2.38zm2.85-3.1v.13l-1-1.68 1.59-2a12.15 12.15 0 0 1-.6 3.55zm.54-4.34l-1.89 2.34-1.59-2.63 1.61-2.64 1.85 2.49v.21c0 .07.01.17.01.23z" fill="#192852"/></svg><svg data-name="Layer 1" width="22.51" height="22.49" viewBox="-2 -2 22.51 22.49" id="diamond-search-sprite.CU-red" x="79.51" y="109.81" xmlns="http://www.w3.org/2000/svg"><path d="M17.77 4.133a5.88 5.88 0 0 0-4.4-3.75 19.55 19.55 0 0 0-4.12-.38 18.39 18.39 0 0 0-4.32.43 5.89 5.89 0 0 0-4.3 3.91 15.14 15.14 0 0 0-.62 4.9 17.25 17.25 0 0 0 .49 4.52 5.63 5.63 0 0 0 4.58 4.33 19.27 19.27 0 0 0 4.17.39 18.92 18.92 0 0 0 4.18-.39 5.64 5.64 0 0 0 4.45-4 15.32 15.32 0 0 0 .61-4.87 13 13 0 0 0-.72-5.09zm-.84 9.69v.08l-1.05-1.68 1.59-2a12.15 12.15 0 0 1-.52 3.53zm-7.68 3.67l-3.94-2.93 4-1.09 4 1.09-3.94 2.93zm-7.79-4a14.23 14.23 0 0 1-.43-3.27l1.59 2-1 1.7c-.07-.14-.12-.3-.15-.41zm.17-9l1 1.57-1.59 2.11a12 12 0 0 1 .53-3.49c.02-.06.05-.06.07-.16zm1.25 7.27l-1.86-2.34v-.39l1.86-2.48 1.61 2.64zm6.38-10.75h.22l3.75 2.79-4 1.09-4-1.09 3.75-2.79zm-4.27 12l2.95.33-3 .82zm8.57 1.14l-3-.82 2.95-.33zm-4.3-1.18L5 12.503l.07-3.25v-.13L5 5.873l4.26-.47 4.26.47-.07 3.25v.12l.07 3.25zm4.27-7.58l-2.95-.33 3-.82zm-8.57-1.16l3 .82-2.95.33zm11.92.33a10.18 10.18 0 0 1 .6 3.61l-1.6-2.08 1-1.55zm-1.23 2l1.85 2.49v.39l-1.89 2.34-1.57-2.58zm1-2.57l-2.68 4.33.14-6.7a5 5 0 0 1 2.51 2.36zm-3-2.5v2l-3.23-2.4a16.13 16.13 0 0 1 2.83.33c.07-.03.21.02.36.06zm-8.47-.08a15.15 15.15 0 0 1 3-.37l-3.23 2.4v-1.95zm-.77.21l.13 6.66-2.66-4.33a4.92 4.92 0 0 1 2.53-2.33zm-2.59 12.88l2.72-4.46-.14 6.84a4.65 4.65 0 0 1-2.58-2.38zm3.06 2.53v-2.1l3.42 2.54a16.48 16.48 0 0 1-3.09-.35c-.06-.02-.18-.06-.33-.09zm8.33.09a16 16 0 0 1-3.08.35l3.42-2.54v2.1zm.87-.25l-.14-6.83 2.71 4.45a4.65 4.65 0 0 1-2.54 2.38z" fill="#EB1000"/></svg><svg data-name="Layer 1" width="22.51" height="22.49" viewBox="-2 -2 22.51 22.49" id="diamond-search-sprite.CU-white" x="102.02000000000001" y="109.81" xmlns="http://www.w3.org/2000/svg"><path d="M17.77 4.133a5.88 5.88 0 0 0-4.4-3.75 19.55 19.55 0 0 0-4.12-.38 18.39 18.39 0 0 0-4.32.43 5.89 5.89 0 0 0-4.3 3.91 15.14 15.14 0 0 0-.62 4.9 17.25 17.25 0 0 0 .49 4.52 5.63 5.63 0 0 0 4.58 4.33 19.27 19.27 0 0 0 4.17.39 18.92 18.92 0 0 0 4.18-.39 5.64 5.64 0 0 0 4.45-4 15.32 15.32 0 0 0 .61-4.87 13 13 0 0 0-.72-5.09zm-.84 9.69v.08l-1.05-1.68 1.59-2a12.15 12.15 0 0 1-.52 3.53zm-7.68 3.67l-3.94-2.93 4-1.09 4 1.09-3.94 2.93zm-7.79-4a14.23 14.23 0 0 1-.43-3.27l1.59 2-1 1.7c-.07-.14-.12-.3-.15-.41zm.17-9l1 1.57-1.59 2.11a12 12 0 0 1 .53-3.49c.02-.06.05-.06.07-.16zm1.25 7.27l-1.86-2.34v-.39l1.86-2.48 1.61 2.64zm6.38-10.75h.22l3.75 2.79-4 1.09-4-1.09 3.75-2.79zm-4.27 12l2.95.33-3 .82zm8.57 1.14l-3-.82 2.95-.33zm-4.3-1.18L5 12.503l.07-3.25v-.13L5 5.873l4.26-.47 4.26.47-.07 3.25v.12l.07 3.25zm4.27-7.58l-2.95-.33 3-.82zm-8.57-1.16l3 .82-2.95.33zm11.92.33a10.18 10.18 0 0 1 .6 3.61l-1.6-2.08 1-1.55zm-1.23 2l1.85 2.49v.39l-1.89 2.34-1.57-2.58zm1-2.57l-2.68 4.33.14-6.7a5 5 0 0 1 2.51 2.36zm-3-2.5v2l-3.23-2.4a16.13 16.13 0 0 1 2.83.33c.07-.03.21.02.36.06zm-8.47-.08a15.15 15.15 0 0 1 3-.37l-3.23 2.4v-1.95zm-.77.21l.13 6.66-2.66-4.33a4.92 4.92 0 0 1 2.53-2.33zm-2.59 12.88l2.72-4.46-.14 6.84a4.65 4.65 0 0 1-2.58-2.38zm3.06 2.53v-2.1l3.42 2.54a16.48 16.48 0 0 1-3.09-.35c-.06-.02-.18-.06-.33-.09zm8.33.09a16 16 0 0 1-3.08.35l3.42-2.54v2.1zm.87-.25l-.14-6.83 2.71 4.45a4.65 4.65 0 0 1-2.54 2.38z" fill="#fff"/></svg><svg data-name="Layer 1" width="19" height="24.57" viewBox="-2 -2 19 24.57" id="diamond-search-sprite.EC" y="109.81" xmlns="http://www.w3.org/2000/svg"><path d="M12 0H3L0 3.08V18l2.32 2.57h10.36L15 18V3.09zm-1.93 3.49H4.95L3.66.88h7.67zm-5.13.44h5.12l1.59 1.77v9.52l-1.18 1.42H4.53l-1.18-1.42V5.7zm-.41 13.15h5.91l1.6 2.61h-9zm6.3-.2l1-1.26 2.23 2-1.62 1.89zm1.29-1.67V5.69l2-1.88v13.25zm1.9-11.9l-2.12 2-1.45-1.6 1.31-2.7zM3.23 1.02L4.56 3.7 3.12 5.31.93 3.39zm-.32 4.7v9.59l-2 2V3.93zm-1.9 12.09l2.11-2.13 1 1.18-1.56 2.69z" fill="#192852"/></svg><svg data-name="Layer 1" width="29.95" height="28.95" viewBox="-2 -2 29.95 28.95" id="diamond-search-sprite.EC-360" y="54.5" xmlns="http://www.w3.org/2000/svg"><path d="M13.6 18.47l4.52 3.1-4.52 3.38v-2.48h-.61c-6.3 0-11.53-1.36-12.73-3.2a1.45 1.45 0 0 1-.26-.8c0-1.2 1.72-2.28 4.44-3v.72c-1.75.5-2.84 1.17-2.84 1.92a.89.89 0 0 0 .14.43 2.7 2.7 0 0 0 1.21 1c1.89.91 5.56 1.53 9.79 1.53h.83zm11.66-1.31a9.5 9.5 0 0 0-3.79-1.69v.85a6.19 6.19 0 0 1 1.84.89 1.24 1.24 0 0 1 .58.92c0 .42-.34.81-.95 1.17a9.13 9.13 0 0 1-2.26.88v1.54c3.19-.73 5.27-1.9 5.27-3.22a1.8 1.8 0 0 0-.7-1.32z" fill="#f27a21"/><path data-name="Emerald360" d="M8.46 0l-3 3.08v14.53c.33.08.67.15 1 .22l2.14-2.15 1 1.18-.75 1.28h.49l.64-1.11h2.79v-.44H10l-1.18-1.42V5.69l1.59-1.77h5.12l1.59 1.77v9.52l-1.18 1.42H13.6l.64.44h1.62l1.6 2.61H15.6l-.11.09 1.16.8h1.54l1.38-1.53v-1.33l-1.65 1.76-1.62-2.6 1-1.26 2.23 2v.05c.34-.09.64-.19.93-.29V3.08l-3-3.08zm-.08 15.31l-2 2V3.93l2 1.79zm.2-10L6.4 3.39l2.3-2.37 1.33 2.68zm1.84-1.84L9.13.88h7.67l-1.26 2.59zm9.18 13.59l-2-1.85V5.68l2-1.9zM17.34 5.28L15.92 3.7 17.23 1l2.23 2.3z" fill="#192852"/></svg><svg data-name="Layer 1" width="19" height="24.57" viewBox="-2 -2 19 24.57" id="diamond-search-sprite.EC-red" x="19" y="109.81" xmlns="http://www.w3.org/2000/svg"><path d="M12 0H3L0 3.08V18l2.32 2.57h10.36L15 18V3.09zm-1.93 3.49H4.95L3.66.88h7.67zm-5.13.44h5.12l1.59 1.77v9.52l-1.18 1.42H4.53l-1.18-1.42V5.7zm-.41 13.15h5.91l1.6 2.61h-9zm6.3-.2l1-1.26 2.23 2-1.62 1.89zm1.29-1.67V5.69l2-1.88v13.25zm1.9-11.9l-2.12 2-1.45-1.6 1.31-2.7zM3.23 1.02L4.56 3.7 3.12 5.31.93 3.39zm-.32 4.7v9.59l-2 2V3.93zm-1.9 12.09l2.11-2.13 1 1.18-1.56 2.69z" fill="#EB1000"/></svg><svg data-name="Layer 1" width="19" height="24.57" viewBox="-2 -2 19 24.57" id="diamond-search-sprite.EC-white" x="38" y="109.81" xmlns="http://www.w3.org/2000/svg"><path d="M12 0H3L0 3.08V18l2.32 2.57h10.36L15 18V3.09zm-1.93 3.49H4.95L3.66.88h7.67zm-5.13.44h5.12l1.59 1.77v9.52l-1.18 1.42H4.53l-1.18-1.42V5.7zm-.41 13.15h5.91l1.6 2.61h-9zm6.3-.2l1-1.26 2.23 2-1.62 1.89zm1.29-1.67V5.69l2-1.88v13.25zm1.9-11.9l-2.12 2-1.45-1.6 1.31-2.7zM3.23 1.02L4.56 3.7 3.12 5.31.93 3.39zm-.32 4.7v9.59l-2 2V3.93zm-1.9 12.09l2.11-2.13 1 1.18-1.56 2.69z" fill="#fff"/></svg><svg data-name="Layer 1" width="21.22" height="21.01" viewBox="-2 -2 21.22 21.01" id="diamond-search-sprite.HS" x="135.8" xmlns="http://www.w3.org/2000/svg"><path d="M12.671.01a5.47 5.47 0 0 0-4.06 1.46A5.47 5.47 0 0 0 4.551.01c-3.75 0-9.69 8.83 4.06 17 13.75-8.17 7.81-17 4.06-17zm3.16 3.83l-2.84 2.27V1.02a4.46 4.46 0 0 1 2.84 2.82zm-3.1 2.79zm-2.15-2.31a3.23 3.23 0 0 0-1.1.19l3.06-3.09v4.42a2.39 2.39 0 0 0-1.96-1.47zm-2 7.66c-3.93-2.42-3.82-4.66-3.59-5.52a2.09 2.09 0 0 1 1.64-1.62 2.21 2.21 0 0 1 1.6.54l.37.42.38-.41a2.2 2.2 0 0 1 1.6-.54 2.09 2.09 0 0 1 1.65 1.66c.2.86.31 3.1-3.62 5.52zm-2-7.66a2.36 2.36 0 0 0-1.81 1.52V1.51l3.08 3.11a3.22 3.22 0 0 0-1.22-.25zm-2.2 2.8a4.53 4.53 0 0 0 1.13 2.92l-3.28-.32zm3.85 5.21l-1.29 1.79-.4-3a12.86 12.86 0 0 0 1.69 1.21zm2.6-1.31l-.41 3.1-1.31-1.82a12.58 12.58 0 0 0 1.67-1.27zm2-3.91l2.23 2.6-3.37.38a4.51 4.51 0 0 0 1.09-2.98zm-.6-6.08l-3.4 3.44v-1.8l.5-.54a4.46 4.46 0 0 1 2.9-1.1zm-3.9 1.66v1.73l-3.32-3.38a4.45 4.45 0 0 1 2.84 1.09zm-4.1-1.64v5.1l-2.84-2.31a4.4 4.4 0 0 1 2.84-2.79zm-3 3.35l3 2.36-2.32 2.59a6.81 6.81 0 0 1-.68-4.95zm1.19 5.84l3.51.4.48 3.66a16.41 16.41 0 0 1-3.99-4.06zm4.62 4.53l1.55-2.16 1.64 2.13c-.5.35-1 .7-1.6 1.06-.59-.35-1.1-.69-1.58-1.03zm3.82-.51l.47-3.62 3.45-.39a16.34 16.34 0 0 1-3.92 4.01zm4.46-4.94l-2.23-2.61 2.91-2.32a6.8 6.8 0 0 1-.67 4.92z" fill="#192852"/></svg><svg data-name="Layer 1" width="29.95" height="26.02" viewBox="-2 -2 29.95 26.02" id="diamond-search-sprite.HS-360" x="29.96" y="26.23" xmlns="http://www.w3.org/2000/svg"><path d="M13.59 15.56l4.52 3.1-4.52 3.36v-2.48h-.61c-6.28 0-11.52-1.38-12.72-3.22a1.45 1.45 0 0 1-.26-.8c0-1.2 1.72-2.28 4.44-3v.72c-1.76.49-2.85 1.19-2.85 1.94a.89.89 0 0 0 .14.43 2.7 2.7 0 0 0 1.21 1c1.89.91 5.56 1.53 9.79 1.53h.83zm11.66-1.31a9.5 9.5 0 0 0-3.78-1.73v.85a6.19 6.19 0 0 1 1.84.89 1.24 1.24 0 0 1 .58.92c0 .42-.34.81-.95 1.17a9.13 9.13 0 0 1-2.26.88v1.5c3.19-.73 5.27-1.9 5.27-3.22a1.8 1.8 0 0 0-.71-1.26z" fill="#f27a21"/><path data-name="Heart360" d="M16.41.01a5.47 5.47 0 0 0-4.06 1.46A5.47 5.47 0 0 0 8.29.01c-3.66 0-9.41 8.43 3.17 16.41h1.3v-.86l-.41.26c-.56-.35-1.08-.69-1.56-1l1.55-2.16 1.49 2.07 1 .67C25.3 7.73 19.91.01 16.41.01zm.37 1.05a4.46 4.46 0 0 1 2.81 2.83l-2.84 2.27zm-.3 5.67zm-3.89-4.05l.5-.54A4.46 4.46 0 0 1 16 1.04l-3.41 3.43zm3.68-1.21v4.42a2.39 2.39 0 0 0-1.91-1.52 3.23 3.23 0 0 0-1.1.19zm-4.68.66l.5.57v1.72L8.75 1.04a4.45 4.45 0 0 1 2.84 1.09zm0 2.45a3.22 3.22 0 0 0-1.18-.21A2.36 2.36 0 0 0 8.55 5.8V1.47zM7.97 1.06v5.1l-2.84-2.3a4.4 4.4 0 0 1 2.84-2.8zm-3 3.35l3 2.36-2.32 2.59a6.81 6.81 0 0 1-.71-4.95zM8.2 7.18a4.53 4.53 0 0 0 1.13 2.92l-3.34-.37zm-2 3.07l3.51.4.48 3.66a16.41 16.41 0 0 1-4.03-4.07zm4.39 3.88l-.4-3a12.86 12.86 0 0 0 1.69 1.25zm3.48 0l-1.31-1.82a12.58 12.58 0 0 0 1.71-1.28zm-1.77-2.1C8.37 9.61 8.48 7.37 8.71 6.51a2.09 2.09 0 0 1 1.61-1.64 2.21 2.21 0 0 1 1.6.54l.37.42.38-.41a2.2 2.2 0 0 1 1.6-.54 2.09 2.09 0 0 1 1.61 1.64c.29.85.4 3.09-3.53 5.51zm2.29 2.23l.47-3.62 3.45-.39a16.34 16.34 0 0 1-3.92 4.01zm.78-4.16a4.51 4.51 0 0 0 1.14-3l2.24 2.63zm1.47-3.37l2.91-2.32a6.8 6.8 0 0 1-.69 4.91z" fill="#192852"/></svg><svg data-name="Layer 1" width="21.22" height="21.01" viewBox="-2 -2 21.22 21.01" id="diamond-search-sprite.HS-red" x="135.8" y="21.01" xmlns="http://www.w3.org/2000/svg"><path d="M12.671.01a5.47 5.47 0 0 0-4.06 1.46A5.47 5.47 0 0 0 4.551.01c-3.75 0-9.69 8.83 4.06 17 13.75-8.17 7.81-17 4.06-17zm3.16 3.83l-2.84 2.27V1.02a4.46 4.46 0 0 1 2.84 2.82zm-3.1 2.79zm-2.15-2.31a3.23 3.23 0 0 0-1.1.19l3.06-3.09v4.42a2.39 2.39 0 0 0-1.96-1.47zm-2 7.66c-3.93-2.42-3.82-4.66-3.59-5.52a2.09 2.09 0 0 1 1.64-1.62 2.21 2.21 0 0 1 1.6.54l.37.42.38-.41a2.2 2.2 0 0 1 1.6-.54 2.09 2.09 0 0 1 1.65 1.66c.2.86.31 3.1-3.62 5.52zm-2-7.66a2.36 2.36 0 0 0-1.81 1.52V1.51l3.08 3.11a3.22 3.22 0 0 0-1.22-.25zm-2.2 2.8a4.53 4.53 0 0 0 1.13 2.92l-3.28-.32zm3.85 5.21l-1.29 1.79-.4-3a12.86 12.86 0 0 0 1.69 1.21zm2.6-1.31l-.41 3.1-1.31-1.82a12.58 12.58 0 0 0 1.67-1.27zm2-3.91l2.23 2.6-3.37.38a4.51 4.51 0 0 0 1.09-2.98zm-.6-6.08l-3.4 3.44v-1.8l.5-.54a4.46 4.46 0 0 1 2.9-1.1zm-3.9 1.66v1.73l-3.32-3.38a4.45 4.45 0 0 1 2.84 1.09zm-4.1-1.64v5.1l-2.84-2.31a4.4 4.4 0 0 1 2.84-2.79zm-3 3.35l3 2.36-2.32 2.59a6.81 6.81 0 0 1-.68-4.95zm1.19 5.84l3.51.4.48 3.66a16.41 16.41 0 0 1-3.99-4.06zm4.62 4.53l1.55-2.16 1.64 2.13c-.5.35-1 .7-1.6 1.06-.59-.35-1.1-.69-1.58-1.03zm3.82-.51l.47-3.62 3.45-.39a16.34 16.34 0 0 1-3.92 4.01zm4.46-4.94l-2.23-2.61 2.91-2.32a6.8 6.8 0 0 1-.67 4.92z" fill="#EB1000"/></svg><svg data-name="Layer 1" width="21.22" height="21.01" viewBox="-2 -2 21.22 21.01" id="diamond-search-sprite.HS-white" x="135.8" y="42.02" xmlns="http://www.w3.org/2000/svg"><path d="M12.671.01a5.47 5.47 0 0 0-4.06 1.46A5.47 5.47 0 0 0 4.551.01c-3.75 0-9.69 8.83 4.06 17 13.75-8.17 7.81-17 4.06-17zm3.16 3.83l-2.84 2.27V1.02a4.46 4.46 0 0 1 2.84 2.82zm-3.1 2.79zm-2.15-2.31a3.23 3.23 0 0 0-1.1.19l3.06-3.09v4.42a2.39 2.39 0 0 0-1.96-1.47zm-2 7.66c-3.93-2.42-3.82-4.66-3.59-5.52a2.09 2.09 0 0 1 1.64-1.62 2.21 2.21 0 0 1 1.6.54l.37.42.38-.41a2.2 2.2 0 0 1 1.6-.54 2.09 2.09 0 0 1 1.65 1.66c.2.86.31 3.1-3.62 5.52zm-2-7.66a2.36 2.36 0 0 0-1.81 1.52V1.51l3.08 3.11a3.22 3.22 0 0 0-1.22-.25zm-2.2 2.8a4.53 4.53 0 0 0 1.13 2.92l-3.28-.32zm3.85 5.21l-1.29 1.79-.4-3a12.86 12.86 0 0 0 1.69 1.21zm2.6-1.31l-.41 3.1-1.31-1.82a12.58 12.58 0 0 0 1.67-1.27zm2-3.91l2.23 2.6-3.37.38a4.51 4.51 0 0 0 1.09-2.98zm-.6-6.08l-3.4 3.44v-1.8l.5-.54a4.46 4.46 0 0 1 2.9-1.1zm-3.9 1.66v1.73l-3.32-3.38a4.45 4.45 0 0 1 2.84 1.09zm-4.1-1.64v5.1l-2.84-2.31a4.4 4.4 0 0 1 2.84-2.79zm-3 3.35l3 2.36-2.32 2.59a6.81 6.81 0 0 1-.68-4.95zm1.19 5.84l3.51.4.48 3.66a16.41 16.41 0 0 1-3.99-4.06zm4.62 4.53l1.55-2.16 1.64 2.13c-.5.35-1 .7-1.6 1.06-.59-.35-1.1-.69-1.58-1.03zm3.82-.51l.47-3.62 3.45-.39a16.34 16.34 0 0 1-3.92 4.01zm4.46-4.94l-2.23-2.61 2.91-2.32a6.8 6.8 0 0 1-.67 4.92z" fill="#fff"/></svg><svg data-name="Layer 1" width="17" height="26.36" viewBox="-2 -2 17 26.36" id="diamond-search-sprite.MQ" y="83.45" xmlns="http://www.w3.org/2000/svg"><path d="M6.75.081a.44.44 0 0 0-.51 0C5.98.261 0 4.581 0 11.181s6.24 11.1 6.3 11.13a.44.44 0 0 0 .4 0c.06 0 6.3-4.5 6.3-11.13C13 4.551 7.01.261 6.75.081zm-4 17.1l3.27-1-1.6 3.19a16.36 16.36 0 0 1-1.67-2.19zm1-6.93l-2.16-2.31 2.86.52a5.56 5.56 0 0 0-.69 1.78zm-2.88.93a10.1 10.1 0 0 1 .43-2.9l2.37 2.54v.61l-2.39 2.56a10.09 10.09 0 0 1-.39-2.82zm3.53 2.61l-2.81.52 2.14-2.29a5.48 5.48 0 0 0 .69 1.76zm1.62 1.91l-3.23 1 2-2.41a8 8 0 0 0 1.23 1.41zm.47-.18a6.06 6.06 0 0 1-2.37-4.35 6.08 6.08 0 0 1 2.39-4.34 6.07 6.07 0 0 1 2.39 4.34 6.05 6.05 0 0 1-2.4 4.35zm2-7.06l2.83-.52-2.1 2.27a5.57 5.57 0 0 0-.7-1.76zm.72 3.59l2.11 2.26-2.77-.51a5.47 5.47 0 0 0 .69-1.76zm.06-1.27l2.36-2.53a9.91 9.91 0 0 1 0 5.78l-2.38-2.55v-.29c0-.1.07-.29.05-.42zm-.54-2.82l1.85-2.26a12.71 12.71 0 0 1 .83 1.74zm-.58 0a7.86 7.86 0 0 0-1.33-1.41l3.3-1zm-3.4 0l-2-2.46 3.33 1a7.86 7.86 0 0 0-1.29 1.49zm-2.35-2.2l1.78 2.19-2.6-.48a12.71 12.71 0 0 1 .82-1.71zm1.78 8.52l-1.82 2.25a12.62 12.62 0 0 1-.81-1.76zm4 0l1.94 2.42-3.2-1a7.85 7.85 0 0 0 1.32-1.37zm2.38 2.22l-1.85-2.27 2.67.49a12.64 12.64 0 0 1-.76 1.83zm-.38-11.44l-3.25 1 1.58-3.16a16.44 16.44 0 0 1 1.67 2.16zM6.5 1.001a17.14 17.14 0 0 1 1.69 1.56l-1.71 3.42-1.7-3.39a17.24 17.24 0 0 1 1.72-1.59zm-2 1.94l1.52 3.13-3.21-1a16.47 16.47 0 0 1 1.65-2.13zm2 18.41a17.15 17.15 0 0 1-1.76-1.65l1.74-3.47 1.75 3.5a17.16 17.16 0 0 1-1.73 1.62zm2.05-1.95l-1.62-3.24 3.31 1a16.38 16.38 0 0 1-1.69 2.24z" fill="#192852"/></svg><svg data-name="Layer 1" width="29.94" height="29.93" viewBox="-2 -2 29.94 29.93" id="diamond-search-sprite.MQ-360" x="89.86" xmlns="http://www.w3.org/2000/svg"><path d="M13.59 19.471l4.52 3.1-4.52 3.36v-2.47h-.61c-6.28 0-11.52-1.38-12.72-3.22a1.45 1.45 0 0 1-.26-.8c0-1.2 1.72-2.28 4.44-3v.74c-1.76.49-2.85 1.17-2.85 1.91a.89.89 0 0 0 .14.43 2.7 2.7 0 0 0 1.21 1c1.89.91 5.56 1.53 9.79 1.53h.83zm11.65-1.29a9.5 9.5 0 0 0-3.78-1.73v.85a6.19 6.19 0 0 1 1.84.89 1.24 1.24 0 0 1 .58.92c0 .42-.34.81-.95 1.17a9.13 9.13 0 0 1-2.26.88v1.52c3.19-.73 5.27-1.9 5.27-3.22a1.8 1.8 0 0 0-.7-1.28z" fill="#f27a21"/><path d="M13.19.081a.44.44 0 0 0-.51 0c-.26.18-6.24 4.5-6.24 11.1a12.89 12.89 0 0 0 3 7.87l1.21.06a15.92 15.92 0 0 1-1.46-1.93l3.27-1-1.48 3h.49l1.44-2.88.56 1.12.76.52-.86-1.76 3.31 1a15.51 15.51 0 0 1-1.16 1.58l.74.51a13 13 0 0 0 3.18-8.09c0-6.6-5.99-10.92-6.25-11.1zm-.26.92a17.14 17.14 0 0 1 1.66 1.56l-1.67 3.42-1.7-3.39a17.24 17.24 0 0 1 1.72-1.59zm2.73 9.18a5.57 5.57 0 0 0-.71-1.76l2.83-.52zm0 1.84l2.11 2.26-2.77-.51a5.47 5.47 0 0 0 .68-1.73zm-4.76-9.08l1.57 3.13-3.21-1a16.47 16.47 0 0 1 1.64-2.13zm1.69 3.62a7.86 7.86 0 0 0-1.34 1.42l-2-2.46zm-4.51 1.37l2.86.52a5.56 5.56 0 0 0-.71 1.79zm2.81 5.85l-2.81.52 2.14-2.29a5.48 5.48 0 0 0 .64 1.77zm-2-8l1.7 2.17-2.6-.48a12.71 12.71 0 0 1 .85-1.71zm-1.56 5.4a10.1 10.1 0 0 1 .43-2.9l2.37 2.54v.61l-2.4 2.55a10.09 10.09 0 0 1-.4-2.8zm1.48 5.35a12.62 12.62 0 0 1-.81-1.76l2.59-.49zm.43.18l2-2.41a8 8 0 0 0 1.28 1.4zm3.71-1.18a6.06 6.06 0 0 1-2.36-4.35 6.08 6.08 0 0 1 2.39-4.34 6.07 6.07 0 0 1 2.34 4.34 6.05 6.05 0 0 1-2.38 4.34zm.36-9l3.3-1-2 2.43a7.86 7.86 0 0 0-1.31-1.4zm.1 9.15a7.85 7.85 0 0 0 1.27-1.38l1.91 2.4zm3.65.84l-1.85-2.24 2.67.49a12.64 12.64 0 0 1-.82 1.78zm1.53-5.34a10.1 10.1 0 0 1-.42 2.84l-2.38-2.55v-.69l2.36-2.53a10.13 10.13 0 0 1 .44 2.93zm-.71-3.7l-2.64.48 1.81-2.23a12.71 12.71 0 0 1 .79 1.74zm-4.47-1.4l1.58-3.16a16.44 16.44 0 0 1 1.6 2.14z" fill="#192852"/></svg><svg data-name="Layer 1" width="17" height="26.36" viewBox="-2 -2 17 26.36" id="diamond-search-sprite.MQ-red" x="17" y="83.45" xmlns="http://www.w3.org/2000/svg"><path d="M6.75.081a.44.44 0 0 0-.51 0C5.98.261 0 4.581 0 11.181s6.24 11.1 6.3 11.13a.44.44 0 0 0 .4 0c.06 0 6.3-4.5 6.3-11.13C13 4.551 7.01.261 6.75.081zm-4 17.1l3.27-1-1.6 3.19a16.36 16.36 0 0 1-1.67-2.19zm1-6.93l-2.16-2.31 2.86.52a5.56 5.56 0 0 0-.69 1.78zm-2.88.93a10.1 10.1 0 0 1 .43-2.9l2.37 2.54v.61l-2.39 2.56a10.09 10.09 0 0 1-.39-2.82zm3.53 2.61l-2.81.52 2.14-2.29a5.48 5.48 0 0 0 .69 1.76zm1.62 1.91l-3.23 1 2-2.41a8 8 0 0 0 1.23 1.41zm.47-.18a6.06 6.06 0 0 1-2.37-4.35 6.08 6.08 0 0 1 2.39-4.34 6.07 6.07 0 0 1 2.39 4.34 6.05 6.05 0 0 1-2.4 4.35zm2-7.06l2.83-.52-2.1 2.27a5.57 5.57 0 0 0-.7-1.76zm.72 3.59l2.11 2.26-2.77-.51a5.47 5.47 0 0 0 .69-1.76zm.06-1.27l2.36-2.53a9.91 9.91 0 0 1 0 5.78l-2.38-2.55v-.29c0-.1.07-.29.05-.42zm-.54-2.82l1.85-2.26a12.71 12.71 0 0 1 .83 1.74zm-.58 0a7.86 7.86 0 0 0-1.33-1.41l3.3-1zm-3.4 0l-2-2.46 3.33 1a7.86 7.86 0 0 0-1.29 1.49zm-2.35-2.2l1.78 2.19-2.6-.48a12.71 12.71 0 0 1 .82-1.71zm1.78 8.52l-1.82 2.25a12.62 12.62 0 0 1-.81-1.76zm4 0l1.94 2.42-3.2-1a7.85 7.85 0 0 0 1.32-1.37zm2.38 2.22l-1.85-2.27 2.67.49a12.64 12.64 0 0 1-.76 1.83zm-.38-11.44l-3.25 1 1.58-3.16a16.44 16.44 0 0 1 1.67 2.16zM6.5 1.001a17.14 17.14 0 0 1 1.69 1.56l-1.71 3.42-1.7-3.39a17.24 17.24 0 0 1 1.72-1.59zm-2 1.94l1.52 3.13-3.21-1a16.47 16.47 0 0 1 1.65-2.13zm2 18.41a17.15 17.15 0 0 1-1.76-1.65l1.74-3.47 1.75 3.5a17.16 17.16 0 0 1-1.73 1.62zm2.05-1.95l-1.62-3.24 3.31 1a16.38 16.38 0 0 1-1.69 2.24z" fill="#EB1000"/></svg><svg data-name="Layer 1" width="17" height="26.36" viewBox="-2 -2 17 26.36" id="diamond-search-sprite.MQ-white" x="34" y="83.45" xmlns="http://www.w3.org/2000/svg"><path d="M6.75.081a.44.44 0 0 0-.51 0C5.98.261 0 4.581 0 11.181s6.24 11.1 6.3 11.13a.44.44 0 0 0 .4 0c.06 0 6.3-4.5 6.3-11.13C13 4.551 7.01.261 6.75.081zm-4 17.1l3.27-1-1.6 3.19a16.36 16.36 0 0 1-1.67-2.19zm1-6.93l-2.16-2.31 2.86.52a5.56 5.56 0 0 0-.69 1.78zm-2.88.93a10.1 10.1 0 0 1 .43-2.9l2.37 2.54v.61l-2.39 2.56a10.09 10.09 0 0 1-.39-2.82zm3.53 2.61l-2.81.52 2.14-2.29a5.48 5.48 0 0 0 .69 1.76zm1.62 1.91l-3.23 1 2-2.41a8 8 0 0 0 1.23 1.41zm.47-.18a6.06 6.06 0 0 1-2.37-4.35 6.08 6.08 0 0 1 2.39-4.34 6.07 6.07 0 0 1 2.39 4.34 6.05 6.05 0 0 1-2.4 4.35zm2-7.06l2.83-.52-2.1 2.27a5.57 5.57 0 0 0-.7-1.76zm.72 3.59l2.11 2.26-2.77-.51a5.47 5.47 0 0 0 .69-1.76zm.06-1.27l2.36-2.53a9.91 9.91 0 0 1 0 5.78l-2.38-2.55v-.29c0-.1.07-.29.05-.42zm-.54-2.82l1.85-2.26a12.71 12.71 0 0 1 .83 1.74zm-.58 0a7.86 7.86 0 0 0-1.33-1.41l3.3-1zm-3.4 0l-2-2.46 3.33 1a7.86 7.86 0 0 0-1.29 1.49zm-2.35-2.2l1.78 2.19-2.6-.48a12.71 12.71 0 0 1 .82-1.71zm1.78 8.52l-1.82 2.25a12.62 12.62 0 0 1-.81-1.76zm4 0l1.94 2.42-3.2-1a7.85 7.85 0 0 0 1.32-1.37zm2.38 2.22l-1.85-2.27 2.67.49a12.64 12.64 0 0 1-.76 1.83zm-.38-11.44l-3.25 1 1.58-3.16a16.44 16.44 0 0 1 1.67 2.16zM6.5 1.001a17.14 17.14 0 0 1 1.69 1.56l-1.71 3.42-1.7-3.39a17.24 17.24 0 0 1 1.72-1.59zm-2 1.94l1.52 3.13-3.21-1a16.47 16.47 0 0 1 1.65-2.13zm2 18.41a17.15 17.15 0 0 1-1.76-1.65l1.74-3.47 1.75 3.5a17.16 17.16 0 0 1-1.73 1.62zm2.05-1.95l-1.62-3.24 3.31 1a16.38 16.38 0 0 1-1.69 2.24z" fill="#fff"/></svg><svg data-name="Layer 1" width="18" height="24.82" viewBox="-2 -2 18 24.82" id="diamond-search-sprite.OV" x="51" y="83.45" xmlns="http://www.w3.org/2000/svg"><path d="M7 0C6.93 0 .08.12 0 10.42c.19 10.28 6.93 10.4 7 10.4.07 0 6.81-.12 7-10.4C13.92.12 7.07 0 7 0zm6.09 9L9.78 7.08v-.07l.64-4.71c1.2 1.11 2.39 3.11 2.67 6.7zM.85 10.41v-.92l3.06-1.77a7.73 7.73 0 0 0-.42 2.69 7.66 7.66 0 0 0 .53 2.85L.89 11.41c-.02-.29-.04-.64-.04-1zM7 15.2s-3-.06-3.08-4.79a6.71 6.71 0 0 1 .62-3l.1-.19a3 3 0 0 1 2.11-1.49h.3a3 3 0 0 1 2.11 1.46v.06l.08.15v.05h.08a6.74 6.74 0 0 1 .61 3C10 15.13 7.12 15.2 7 15.2zm.52-9.93l2.4-2.67-.53 3.88a3.45 3.45 0 0 0-1.88-1.21zm-2.9 1.25L4.09 2.6l2.4 2.67a3.47 3.47 0 0 0-1.87 1.25zm0 7.77a3.44 3.44 0 0 0 1.95 1.27l-2.49 2.78zm4.76 0l.54 4-2.5-2.73a3.42 3.42 0 0 0 1.94-1.23zm1.13-3.88a7.75 7.75 0 0 0-.43-2.66l3 1.76v1.89l-3.12 1.8a7.69 7.69 0 0 0 .55-2.79zm-.58-8.47L7.01 5.19h-.06l-2.9-3.23A5.39 5.39 0 0 1 7 .85a5.38 5.38 0 0 1 2.93 1.09zm-6.31.39l.64 4.73L.91 8.98c.27-3.52 1.44-5.52 2.71-6.65zM.93 11.97l3.3 1.91-.61 4.58C2.4 17.34 1.26 15.41.93 11.97zm3.19 6.92l2.85-3.18 2.87 3.19a5.26 5.26 0 0 1-2.85 1.06 5.28 5.28 0 0 1-2.86-1.07zm6.23-.4l-.62-4.61 3.33-1.93c-.32 3.46-1.44 5.46-2.7 6.54z" fill="#192852"/></svg><svg data-name="Layer 1" width="29.95" height="28.42" viewBox="-2 -2 29.95 28.42" id="diamond-search-sprite.OV-360" x="29.95" y="54.5" xmlns="http://www.w3.org/2000/svg"><path d="M13.59 17.97l4.52 3.1-4.52 3.35v-2.47h-.61c-6.28 0-11.52-1.38-12.72-3.22a1.45 1.45 0 0 1-.26-.8c0-1.2 1.72-2.28 4.44-3v.72c-1.76.51-2.85 1.16-2.85 1.93a.89.89 0 0 0 .14.43 2.7 2.7 0 0 0 1.21 1c1.89.91 5.56 1.53 9.79 1.53h.83zm11.66-1.31a9.5 9.5 0 0 0-3.78-1.73v.88a6.19 6.19 0 0 1 1.84.89 1.24 1.24 0 0 1 .58.92c0 .42-.34.81-.95 1.17a9.13 9.13 0 0 1-2.26.88v1.54c3.19-.73 5.27-1.9 5.27-3.22a1.8 1.8 0 0 0-.71-1.33z" fill="#f27a21"/><path data-name="Oval360" d="M12.94 0c-.07 0-6.92.12-7 10.42a14 14 0 0 0 1.55 6.73l1.05.13a11.21 11.21 0 0 1-1.67-5.3l3.3 1.91-.47 3.49h.43l.46-3.09a3.44 3.44 0 0 0 1.95 1.27l-1.68 1.87h.56l1.42-1.58v-.56l.87.6-.3-.33a3.42 3.42 0 0 0 1.95-1.24l.4 3 .47.32-.51-3.75 3.33-1.93c-.32 3.45-1.48 5.42-2.7 6.54v-.28l-.58.43.84.73c1.67-1.35 3.32-3.94 3.42-9C19.86.12 13.01 0 12.94 0zm6.09 9l-3.31-1.92v-.07l.64-4.71c1.23 1.14 2.39 3.15 2.67 6.71zm-3.7-2.52a3.45 3.45 0 0 0-1.87-1.21l2.4-2.67zM12.94.81a5.38 5.38 0 0 1 2.93 1.09l-2.92 3.29h-.06l-2.9-3.23A5.39 5.39 0 0 1 12.94.81zm-.54 4.42a3.47 3.47 0 0 0-1.87 1.24L9.99 2.6zm-2.87-2.9l.64 4.73-3.32 1.93c.27-3.52 1.44-5.52 2.68-6.66zm-2.7 9.12V9.53l3.06-1.77a7.73 7.73 0 0 0-.44 2.69 7.66 7.66 0 0 0 .53 2.85zm6.1 3.75s-3-.06-3.08-4.79a6.71 6.71 0 0 1 .62-3l.1-.19a3 3 0 0 1 2.11-1.49h.3a3 3 0 0 1 2.11 1.46v.06l.08.15v.05h.08a6.74 6.74 0 0 1 .61 3c.08 4.68-2.8 4.75-2.92 4.75zm6.11-3.77l-3.12 1.8a7.69 7.69 0 0 0 .52-2.83 7.75 7.75 0 0 0-.43-2.66l3 1.76v.89c0 .31.05.72.03 1.05z" fill="#192852"/></svg><svg data-name="Layer 1" width="18" height="24.82" viewBox="-2 -2 18 24.82" id="diamond-search-sprite.OV-red" x="69" y="83.45" xmlns="http://www.w3.org/2000/svg"><path d="M7 0C6.93 0 .08.12 0 10.42c.19 10.28 6.93 10.4 7 10.4.07 0 6.81-.12 7-10.4C13.92.12 7.07 0 7 0zm6.09 9L9.78 7.08v-.07l.64-4.71c1.2 1.11 2.39 3.11 2.67 6.7zM.85 10.41v-.92l3.06-1.77a7.73 7.73 0 0 0-.42 2.69 7.66 7.66 0 0 0 .53 2.85L.89 11.41c-.02-.29-.04-.64-.04-1zM7 15.2s-3-.06-3.08-4.79a6.71 6.71 0 0 1 .62-3l.1-.19a3 3 0 0 1 2.11-1.49h.3a3 3 0 0 1 2.11 1.46v.06l.08.15v.05h.08a6.74 6.74 0 0 1 .61 3C10 15.13 7.12 15.2 7 15.2zm.52-9.93l2.4-2.67-.53 3.88a3.45 3.45 0 0 0-1.88-1.21zm-2.9 1.25L4.09 2.6l2.4 2.67a3.47 3.47 0 0 0-1.87 1.25zm0 7.77a3.44 3.44 0 0 0 1.95 1.27l-2.49 2.78zm4.76 0l.54 4-2.5-2.73a3.42 3.42 0 0 0 1.94-1.23zm1.13-3.88a7.75 7.75 0 0 0-.43-2.66l3 1.76v1.89l-3.12 1.8a7.69 7.69 0 0 0 .55-2.79zm-.58-8.47L7.01 5.19h-.06l-2.9-3.23A5.39 5.39 0 0 1 7 .85a5.38 5.38 0 0 1 2.93 1.09zm-6.31.39l.64 4.73L.91 8.98c.27-3.52 1.44-5.52 2.71-6.65zM.93 11.97l3.3 1.91-.61 4.58C2.4 17.34 1.26 15.41.93 11.97zm3.19 6.92l2.85-3.18 2.87 3.19a5.26 5.26 0 0 1-2.85 1.06 5.28 5.28 0 0 1-2.86-1.07zm6.23-.4l-.62-4.61 3.33-1.93c-.32 3.46-1.44 5.46-2.7 6.54z" fill="#EB1000"/></svg><svg data-name="Layer 1" width="18" height="24.82" viewBox="-2 -2 18 24.82" id="diamond-search-sprite.OV-white" x="87" y="83.45" xmlns="http://www.w3.org/2000/svg"><path d="M7 0C6.93 0 .08.12 0 10.42c.19 10.28 6.93 10.4 7 10.4.07 0 6.81-.12 7-10.4C13.92.12 7.07 0 7 0zm6.09 9L9.78 7.08v-.07l.64-4.71c1.2 1.11 2.39 3.11 2.67 6.7zM.85 10.41v-.92l3.06-1.77a7.73 7.73 0 0 0-.42 2.69 7.66 7.66 0 0 0 .53 2.85L.89 11.41c-.02-.29-.04-.64-.04-1zM7 15.2s-3-.06-3.08-4.79a6.71 6.71 0 0 1 .62-3l.1-.19a3 3 0 0 1 2.11-1.49h.3a3 3 0 0 1 2.11 1.46v.06l.08.15v.05h.08a6.74 6.74 0 0 1 .61 3C10 15.13 7.12 15.2 7 15.2zm.52-9.93l2.4-2.67-.53 3.88a3.45 3.45 0 0 0-1.88-1.21zm-2.9 1.25L4.09 2.6l2.4 2.67a3.47 3.47 0 0 0-1.87 1.25zm0 7.77a3.44 3.44 0 0 0 1.95 1.27l-2.49 2.78zm4.76 0l.54 4-2.5-2.73a3.42 3.42 0 0 0 1.94-1.23zm1.13-3.88a7.75 7.75 0 0 0-.43-2.66l3 1.76v1.89l-3.12 1.8a7.69 7.69 0 0 0 .55-2.79zm-.58-8.47L7.01 5.19h-.06l-2.9-3.23A5.39 5.39 0 0 1 7 .85a5.38 5.38 0 0 1 2.93 1.09zm-6.31.39l.64 4.73L.91 8.98c.27-3.52 1.44-5.52 2.71-6.65zM.93 11.97l3.3 1.91-.61 4.58C2.4 17.34 1.26 15.41.93 11.97zm3.19 6.92l2.85-3.18 2.87 3.19a5.26 5.26 0 0 1-2.85 1.06 5.28 5.28 0 0 1-2.86-1.07zm6.23-.4l-.62-4.61 3.33-1.93c-.32 3.46-1.44 5.46-2.7 6.54z" fill="#fff"/></svg><svg data-name="Layer 1" width="21" height="21" viewBox="-2 -2 21 21" id="diamond-search-sprite.PR" x="126.23999999999998" y="134.38" xmlns="http://www.w3.org/2000/svg"><path d="M0 0v17h17V0zm3.21 14.07v-.94L4.62 11l.58.93a.25.25 0 0 0 .09.08l1.08.61-2.23 1.45zm.2.5l-2.09 1.38 1.39-2.09v.71zM2.71 3.8L1.09 1.36l2.34 1.55h-.72zm.5-.39h1l2.11 1.4-.95.59v.05c0 .05 0 0 0 0l-.65 1.17-1.39-2.09zm8.1 2.44l.72 1.17v3.3l-.77 1.38-1.17.72h-3l-1.46-.82-.72-1.17V7.19l.79-1.41 1.17-.72h3.1zm-1.23-1.28H6.82L5.08 3.41h6.74zM4.36 7.21v3.26L3.2 12.21V5.46zm2.45 5.71h3.26l1.74 1.16H5.07zm3.81-.24l1-.59a.24.24 0 0 0 .08-.08l.65-1.15 1.56 2.36v.87h-1.19zm1.91-2.4V7.02l1.34-2v7.3zm-.24-3.8l-.59-1h-.05c-.05 0 0 0 0 0l-1.05-.59 2.17-1.44h1.14v.68zm1.2-3.57l2.08-1.38-1.2 1.81v-.43zm-.91 0H4.33L1.45 1h14zM1 2.13L2.71 4.7v8.26L1 15.54zm3.31 12.44h8.25l2.21 1.47H2.14zm9.16 0h.9v-.62l1.38 2.09h-.07zm.9-1.52V4.24l1.66-2.51v13.83z" fill="#192852"/></svg><svg data-name="Layer 1" width="29.96" height="26.02" viewBox="-2 -2 29.96 26.02" id="diamond-search-sprite.PR-360" xmlns="http://www.w3.org/2000/svg"><path d="M13.6 15.57l4.52 3.1-4.52 3.35v-2.47h-.61c-6.3.01-11.53-1.4-12.73-3.2a1.45 1.45 0 0 1-.26-.8c0-1.2 1.72-2.28 4.44-3v.72c-1.75.5-2.84 1.17-2.84 1.88a.89.89 0 0 0 .14.43 2.7 2.7 0 0 0 1.21 1c1.89.91 5.56 1.53 9.79 1.53h.83zm11.66-1.31a9.5 9.5 0 0 0-3.78-1.73v.85a6.19 6.19 0 0 1 1.84.89 1.24 1.24 0 0 1 .58.92c0 .42-.34.81-.95 1.17a9.13 9.13 0 0 1-2.26.88v1.54c3.19-.73 5.27-1.9 5.27-3.22a1.8 1.8 0 0 0-.71-1.3z" fill="#f27a21"/><path d="M5.77 15.94l1.38-2.08v.71h.7l-2.08 1.38a36.57 36.57 0 0 0 6.16.49h.83v-.38H6.54l2.21-1.47h4v-.5H9.51l1.74-1.16h3.26l1.74 1.16h-3.23l.73.5h3.26l2.21 1.47h-3.34l1.4 1h3.17v-1.28c.39-.1.74-.22 1.06-.33V0h-17v15.67c.35.1.79.19 1.26.27zm2.83-1.87h-1v-.92l1.41-2.13.58.93a.25.25 0 0 0 .09.08l1.08.61zm8.13-7.59l-.59-1h-.05c-.05 0 0 0 0 0L15 4.85l2.17-1.44h1.14v.68zM18.31 5v7.3l-1.34-2V7.01zm-3.79-.43h-3.26L9.52 3.41h6.74zm-3.8.24l-.95.59v.05c0 .05 0 0 0 0l-.65 1.17L7.6 4.56V3.41h1zM8.8 7.21v3.26l-1.2 1.74V5.46zm2.68 5.21l-1.46-.82-.72-1.17V7.15l.79-1.41 1.17-.72h3.1l1.39.78.72 1.17v3.3l-.77 1.38-1.17.72zm3.57.26l1-.59a.24.24 0 0 0 .08-.08l.65-1.15 1.53 2.29v.87h-1.15zm5.07 3.36l-2.21-1.47h.9v-.62l1.38 2.09zm.35-.48l-1.66-2.51V4.24l1.67-2.51zM18.81 3.34v-.43h-.88l2.09-1.38zM19.89 1l-2.87 1.91H8.77L5.89 1zm-12 1.91h-.74v.89L5.52 1.36zm-2.45-.76l1.71 2.56v8.26l-1.71 2.56z" fill="#192852"/></svg><svg data-name="Layer 1" width="21" height="21" viewBox="-2 -2 21 21" id="diamond-search-sprite.PR-red" x="157.02" xmlns="http://www.w3.org/2000/svg"><path d="M0 0v17h17V0zm3.21 14.07v-.94L4.62 11l.58.93a.25.25 0 0 0 .09.08l1.08.61-2.23 1.45zm.2.5l-2.09 1.38 1.39-2.09v.71zM2.71 3.8L1.09 1.36l2.34 1.55h-.72zm.5-.39h1l2.11 1.4-.95.59v.05c0 .05 0 0 0 0l-.65 1.17-1.39-2.09zm8.1 2.44l.72 1.17v3.3l-.77 1.38-1.17.72h-3l-1.46-.82-.72-1.17V7.19l.79-1.41 1.17-.72h3.1zm-1.23-1.28H6.82L5.08 3.41h6.74zM4.36 7.21v3.26L3.2 12.21V5.46zm2.45 5.71h3.26l1.74 1.16H5.07zm3.81-.24l1-.59a.24.24 0 0 0 .08-.08l.65-1.15 1.56 2.36v.87h-1.19zm1.91-2.4V7.02l1.34-2v7.3zm-.24-3.8l-.59-1h-.05c-.05 0 0 0 0 0l-1.05-.59 2.17-1.44h1.14v.68zm1.2-3.57l2.08-1.38-1.2 1.81v-.43zm-.91 0H4.33L1.45 1h14zM1 2.13L2.71 4.7v8.26L1 15.54zm3.31 12.44h8.25l2.21 1.47H2.14zm9.16 0h.9v-.62l1.38 2.09h-.07zm.9-1.52V4.24l1.66-2.51v13.83z" fill="#EB1000"/></svg><svg data-name="Layer 1" width="21" height="21" viewBox="-2 -2 21 21" id="diamond-search-sprite.PR-white" x="157.02" y="21" xmlns="http://www.w3.org/2000/svg"><path d="M0 0v17h17V0zm3.21 14.07v-.94L4.62 11l.58.93a.25.25 0 0 0 .09.08l1.08.61-2.23 1.45zm.2.5l-2.09 1.38 1.39-2.09v.71zM2.71 3.8L1.09 1.36l2.34 1.55h-.72zm.5-.39h1l2.11 1.4-.95.59v.05c0 .05 0 0 0 0l-.65 1.17-1.39-2.09zm8.1 2.44l.72 1.17v3.3l-.77 1.38-1.17.72h-3l-1.46-.82-.72-1.17V7.19l.79-1.41 1.17-.72h3.1zm-1.23-1.28H6.82L5.08 3.41h6.74zM4.36 7.21v3.26L3.2 12.21V5.46zm2.45 5.71h3.26l1.74 1.16H5.07zm3.81-.24l1-.59a.24.24 0 0 0 .08-.08l.65-1.15 1.56 2.36v.87h-1.19zm1.91-2.4V7.02l1.34-2v7.3zm-.24-3.8l-.59-1h-.05c-.05 0 0 0 0 0l-1.05-.59 2.17-1.44h1.14v.68zm1.2-3.57l2.08-1.38-1.2 1.81v-.43zm-.91 0H4.33L1.45 1h14zM1 2.13L2.71 4.7v8.26L1 15.54zm3.31 12.44h8.25l2.21 1.47H2.14zm9.16 0h.9v-.62l1.38 2.09h-.07zm.9-1.52V4.24l1.66-2.51v13.83z" fill="#fff"/></svg><svg data-name="Layer 1" width="16" height="24.77" viewBox="-2 -2 16 24.77" id="diamond-search-sprite.PS" x="119.8" xmlns="http://www.w3.org/2000/svg"><path d="M6.07 0H6c-.06 0-6 .56-6 8 0 7.26 5.49 12.31 5.73 12.52l.27.25.27-.25C6.5 20.31 12 15.26 12 8 12.04.57 6.13.01 6.07 0zm0 14.7a9.13 9.13 0 0 1-2.67-6c0-3.34 2.43-3.68 2.67-3.71.24-.03 2.67.37 2.67 3.71a9.15 9.15 0 0 1-2.7 6.01zm3.08-6v-1l2 1-2.13 1.24a7.48 7.48 0 0 0 .1-1.23zm-2.66-4l2.47-2.39-.16 4.48a3.44 3.44 0 0 0-2.34-2.12zM3.28 6.89l-.16-4.54 2.46 2.37a3.44 3.44 0 0 0-2.33 2.14zm-.34 1.89a7.52 7.52 0 0 0 .12 1.16L.92 8.81l2-1zm.13 1.66l.4 5.92a16.37 16.37 0 0 1-2.51-7zm.85 6.62l-.36-5.41a10.37 10.37 0 0 0 2.21 3.37L3.96 17.1zm4.59-5.25l-.36 5.31-1.81-2.08a10.36 10.36 0 0 0 2.14-3.26zm.5-1.4l2.17-1.15a16.39 16.39 0 0 1-2.58 7.2zm2.23-2.36v.31l-2-1 .17-4.81a7.54 7.54 0 0 1 1.81 5.47zM6.04.83a5.71 5.71 0 0 1 2.62 1.11L6 4.55 3.33 1.94A5.7 5.7 0 0 1 6.04.83zM2.66 2.55l.17 4.79-2 1v-.33a7.58 7.58 0 0 1 1.83-5.46zm3.35 17.11a19.53 19.53 0 0 1-1.86-2.23L6 15.3l1.86 2.14a19.52 19.52 0 0 1-1.82 2.22z" fill="#192852"/></svg><svg data-name="Layer 1" width="29.96" height="28.48" viewBox="-2 -2 29.96 28.48" id="diamond-search-sprite.PS-360" y="26.02" xmlns="http://www.w3.org/2000/svg"><path d="M13.6 18.07l4.52 3.1-4.52 3.31v-2.47h-.61c-6.3.06-11.53-1.37-12.73-3.2a1.45 1.45 0 0 1-.26-.8c0-1.2 1.72-2.28 4.44-3v.72c-1.75.5-2.84 1.17-2.84 1.92a.89.89 0 0 0 .14.43 2.7 2.7 0 0 0 1.21 1c1.89.91 5.56 1.53 9.79 1.53h.83zm11.66-1.31a9.5 9.5 0 0 0-3.78-1.73v.85a6.19 6.19 0 0 1 1.84.89 1.24 1.24 0 0 1 .58.92c0 .42-.34.81-.95 1.17a9.13 9.13 0 0 1-2.26.88v1.54c3.19-.73 5.27-1.9 5.27-3.22a1.8 1.8 0 0 0-.71-1.34z" fill="#f27a21"/><path data-name="Pear360" d="M12.99 0h-.07c-.06 0-6 .56-6 8a16.67 16.67 0 0 0 2.8 8.94l1.05.06-.36-5.39a10.37 10.37 0 0 0 2.21 3.37l-1.76 2h.53l1.36-1.57v-.5l1 .68-.55-.64a10.36 10.36 0 0 0 2.2-3.18l-.32 4.75.93.64a16.74 16.74 0 0 0 2.94-9.15c.01-7.45-5.9-8-5.96-8.01zm3 8.71v-1l2 1-2.13 1.13a7.48 7.48 0 0 0 .18-1.13zM12.96.82a5.71 5.71 0 0 1 2.64 1.11l-2.68 2.61-2.67-2.57A5.7 5.7 0 0 1 12.96.82zm2.9 1.46l-.16 4.47a3.44 3.44 0 0 0-2.32-2.08zm-3.38 2.4a3.44 3.44 0 0 0-2.3 2.17l-.16-4.54zM7.79 8.01A7.58 7.58 0 0 1 9.6 2.55l.17 4.79-2 1c.02-.11.01-.22.01-.33zm0 .77l2-1v1a7.52 7.52 0 0 0 .1 1.19L7.75 8.84zm0 .5l2.12 1.12.4 5.92a16.37 16.37 0 0 1-2.46-7.04zm5.11 5.42a9.13 9.13 0 0 1-2.67-6c0-3.34 2.43-3.68 2.67-3.71.24-.03 2.7.37 2.7 3.71a9.15 9.15 0 0 1-2.64 6zm2.54 1.71l.4-6 2.17-1.15a16.39 16.39 0 0 1-2.51 7.16zm2.62-8.09l-2-1 .17-4.81a7.54 7.54 0 0 1 1.88 5.52c.03.04.02.19.02.3z" fill="#192852"/></svg><svg data-name="Layer 1" width="16" height="24.77" viewBox="-2 -2 16 24.77" id="diamond-search-sprite.PS-red" x="119.8" y="24.77" xmlns="http://www.w3.org/2000/svg"><path d="M6.07 0H6c-.06 0-6 .56-6 8 0 7.26 5.49 12.31 5.73 12.52l.27.25.27-.25C6.5 20.31 12 15.26 12 8 12.04.57 6.13.01 6.07 0zm0 14.7a9.13 9.13 0 0 1-2.67-6c0-3.34 2.43-3.68 2.67-3.71.24-.03 2.67.37 2.67 3.71a9.15 9.15 0 0 1-2.7 6.01zm3.08-6v-1l2 1-2.13 1.24a7.48 7.48 0 0 0 .1-1.23zm-2.66-4l2.47-2.39-.16 4.48a3.44 3.44 0 0 0-2.34-2.12zM3.28 6.89l-.16-4.54 2.46 2.37a3.44 3.44 0 0 0-2.33 2.14zm-.34 1.89a7.52 7.52 0 0 0 .12 1.16L.92 8.81l2-1zm.13 1.66l.4 5.92a16.37 16.37 0 0 1-2.51-7zm.85 6.62l-.36-5.41a10.37 10.37 0 0 0 2.21 3.37L3.96 17.1zm4.59-5.25l-.36 5.31-1.81-2.08a10.36 10.36 0 0 0 2.14-3.26zm.5-1.4l2.17-1.15a16.39 16.39 0 0 1-2.58 7.2zm2.23-2.36v.31l-2-1 .17-4.81a7.54 7.54 0 0 1 1.81 5.47zM6.04.83a5.71 5.71 0 0 1 2.62 1.11L6 4.55 3.33 1.94A5.7 5.7 0 0 1 6.04.83zM2.66 2.55l.17 4.79-2 1v-.33a7.58 7.58 0 0 1 1.83-5.46zm3.35 17.11a19.53 19.53 0 0 1-1.86-2.23L6 15.3l1.86 2.14a19.52 19.52 0 0 1-1.82 2.22z" fill="#EB1000"/></svg><svg data-name="Layer 1" width="16" height="24.77" viewBox="-2 -2 16 24.77" id="diamond-search-sprite.PS-white" x="119.8" y="49.54" xmlns="http://www.w3.org/2000/svg"><path d="M6.07 0H6c-.06 0-6 .56-6 8 0 7.26 5.49 12.31 5.73 12.52l.27.25.27-.25C6.5 20.31 12 15.26 12 8 12.04.57 6.13.01 6.07 0zm0 14.7a9.13 9.13 0 0 1-2.67-6c0-3.34 2.43-3.68 2.67-3.71.24-.03 2.67.37 2.67 3.71a9.15 9.15 0 0 1-2.7 6.01zm3.08-6v-1l2 1-2.13 1.24a7.48 7.48 0 0 0 .1-1.23zm-2.66-4l2.47-2.39-.16 4.48a3.44 3.44 0 0 0-2.34-2.12zM3.28 6.89l-.16-4.54 2.46 2.37a3.44 3.44 0 0 0-2.33 2.14zm-.34 1.89a7.52 7.52 0 0 0 .12 1.16L.92 8.81l2-1zm.13 1.66l.4 5.92a16.37 16.37 0 0 1-2.51-7zm.85 6.62l-.36-5.41a10.37 10.37 0 0 0 2.21 3.37L3.96 17.1zm4.59-5.25l-.36 5.31-1.81-2.08a10.36 10.36 0 0 0 2.14-3.26zm.5-1.4l2.17-1.15a16.39 16.39 0 0 1-2.58 7.2zm2.23-2.36v.31l-2-1 .17-4.81a7.54 7.54 0 0 1 1.81 5.47zM6.04.83a5.71 5.71 0 0 1 2.62 1.11L6 4.55 3.33 1.94A5.7 5.7 0 0 1 6.04.83zM2.66 2.55l.17 4.79-2 1v-.33a7.58 7.58 0 0 1 1.83-5.46zm3.35 17.11a19.53 19.53 0 0 1-1.86-2.23L6 15.3l1.86 2.14a19.52 19.52 0 0 1-1.82 2.22z" fill="#fff"/></svg><svg data-name="Layer 1" width="21.04" height="21.07" viewBox="-2 -2 21.04 21.07" id="diamond-search-sprite.RA" x="63.12" y="134.38" xmlns="http://www.w3.org/2000/svg"><path d="M14.36 0H2.72L0 2.94v11.13l2.72 3h11.64l2.68-3V3.23zm-.22 12.03v-6.8l1.87-1.11v9.05zM1 3.89l1.77 1.15h.06l.08.15V12L1 13.16zm7.56 8.66l2.58 1.1H6.07zm-3.38 1v-1h2.3zm4.58-1h2.37v1zm-1.22-.52l-3.4-.06V5.23h7.01v6.68zm-4-3.5l-1.16 2.44V6.23zM3.5 5.23h1.1v2.25zm1.11 4.34v2.35H3.47zm3.9-4.87L5.87 3.34h5.36zm3.63-1.21v1.3H9.5zM7.48 4.77H5.14V3.56zm5.16 2.57V5.29h.93zm0 2.34l1 2.26h-1zm0-1.17l1-2.24v4.63zm0-3.71v-.86l.72.86zm-.42-1.91H4.94a.24.24 0 0 0 0-.14L3.74 1h9.69zM4.61 4.78h-1l1-1zm.06 7.68v.91l-.84-.92zm.39 1.69h7.2l1.17 1.89H3.72zm7.58-1.69h.63l-.63.7zm3.39-8.93l-2.05 1.22-1.35-1.59 1.32-2.09zM3.14 1.03l1.37 2-1.44 1.63-2-1.32zM1.03 13.72l2.11-1.25h.08l1.35 1.47-1.42 2zm12.93 2.26l-1.31-2.12 1.25-1.38 2.08 1.25z" fill="#192852"/></svg><svg data-name="Layer 1" width="29.94" height="26.08" viewBox="-2 -2 29.94 26.08" id="diamond-search-sprite.RA-360" x="89.86" y="29.93" xmlns="http://www.w3.org/2000/svg"><path d="M13.59 15.62l4.52 3.1-4.52 3.36V19.6h-.61C6.7 19.6 1.46 18.22.26 16.38a1.45 1.45 0 0 1-.26-.8c0-1.2 1.72-2.28 4.44-3v.72c-1.76.52-2.85 1.19-2.85 1.94a.89.89 0 0 0 .14.43 2.7 2.7 0 0 0 1.21 1c1.89.91 5.56 1.53 9.79 1.53h.83zm11.66-1.31a9.5 9.5 0 0 0-3.79-1.76v.85a6.19 6.19 0 0 1 1.84.89 1.24 1.24 0 0 1 .58.92c0 .42-.34.81-.95 1.17a9.13 9.13 0 0 1-2.26.88v1.54c3.19-.73 5.27-1.9 5.27-3.22a1.8 1.8 0 0 0-.7-1.27z" fill="#f27a21"/><path d="M21.48 3.19L18.81 0H7.17L4.45 2.94v11.13l1.85 2a37.49 37.49 0 0 0 5.62.4h.83v-.43H8.17l1.33-1.89h3.26v-.2l.28.19h3.66l1.17 1.89h-2.08l1.46 1h1.56l2.68-3zm-1 .34l-2.07 1.22-1.33-1.59 1.32-2.09zm-2.47 1.76l-.93 2v-2zm-.93-.5v-.85l.72.86zm1 1.47v4.63l-1-2.39zM7.59 1.03l1.38 2-1.45 1.62-2-1.32zm1.48 8.58v2.35H7.93zm-1.2 1.36V6.21l1.15 2.34zm.09-5.7h1.1v2.28zm.14-.5l1-1v1zm-2.65-.89l1.77 1.16h.06l.08.15V12l-1.91 1.15zM7.59 16l-2.1-2.29 2.1-1.24h.08l1.35 1.47zm.7-3.56h.83v.91zm1.33 0h2.3l-2.28 1zm.91 1.18l2.48-1.07 2.58 1.09zm6.06-.12l-2.37-1h2.37zm0-1.53l-3.6.06-3.4-.06v-6.7h7.01v6.68zm-3.63-7.23l-2.64-1.35h5.36zm3.63-1.25v1.3h-2.64zm-4.67 1.28H9.59V3.55zm4.74-1.89H9.4a.24.24 0 0 0 0-.14L8.2.99h9.69zm.41 6.79l1 2.27h-1zm0 2.78h.63l-.63.7zm1.34 3.52l-1.3-2.12 1.25-1.38 2.08 1.25zm2.07-2.83l-1.89-1.11V5.21l1.87-1.11z" fill="#192852"/></svg><svg data-name="Layer 1" width="21.04" height="21.07" viewBox="-2 -2 21.04 21.07" id="diamond-search-sprite.RA-red" x="84.16" y="134.38" xmlns="http://www.w3.org/2000/svg"><path d="M14.36 0H2.72L0 2.94v11.13l2.72 3h11.64l2.68-3V3.23zm-.22 12.03v-6.8l1.87-1.11v9.05zM1 3.89l1.77 1.15h.06l.08.15V12L1 13.16zm7.56 8.66l2.58 1.1H6.07zm-3.38 1v-1h2.3zm4.58-1h2.37v1zm-1.22-.52l-3.4-.06V5.23h7.01v6.68zm-4-3.5l-1.16 2.44V6.23zM3.5 5.23h1.1v2.25zm1.11 4.34v2.35H3.47zm3.9-4.87L5.87 3.34h5.36zm3.63-1.21v1.3H9.5zM7.48 4.77H5.14V3.56zm5.16 2.57V5.29h.93zm0 2.34l1 2.26h-1zm0-1.17l1-2.24v4.63zm0-3.71v-.86l.72.86zm-.42-1.91H4.94a.24.24 0 0 0 0-.14L3.74 1h9.69zM4.61 4.78h-1l1-1zm.06 7.68v.91l-.84-.92zm.39 1.69h7.2l1.17 1.89H3.72zm7.58-1.69h.63l-.63.7zm3.39-8.93l-2.05 1.22-1.35-1.59 1.32-2.09zM3.14 1.03l1.37 2-1.44 1.63-2-1.32zM1.03 13.72l2.11-1.25h.08l1.35 1.47-1.42 2zm12.93 2.26l-1.31-2.12 1.25-1.38 2.08 1.25z" fill="#EB1000"/></svg><svg data-name="Layer 1" width="21.04" height="21.07" viewBox="-2 -2 21.04 21.07" id="diamond-search-sprite.RA-white" x="105.19999999999999" y="134.38" xmlns="http://www.w3.org/2000/svg"><path d="M14.36 0H2.72L0 2.94v11.13l2.72 3h11.64l2.68-3V3.23zm-.22 12.03v-6.8l1.87-1.11v9.05zM1 3.89l1.77 1.15h.06l.08.15V12L1 13.16zm7.56 8.66l2.58 1.1H6.07zm-3.38 1v-1h2.3zm4.58-1h2.37v1zm-1.22-.52l-3.4-.06V5.23h7.01v6.68zm-4-3.5l-1.16 2.44V6.23zM3.5 5.23h1.1v2.25zm1.11 4.34v2.35H3.47zm3.9-4.87L5.87 3.34h5.36zm3.63-1.21v1.3H9.5zM7.48 4.77H5.14V3.56zm5.16 2.57V5.29h.93zm0 2.34l1 2.26h-1zm0-1.17l1-2.24v4.63zm0-3.71v-.86l.72.86zm-.42-1.91H4.94a.24.24 0 0 0 0-.14L3.74 1h9.69zM4.61 4.78h-1l1-1zm.06 7.68v.91l-.84-.92zm.39 1.69h7.2l1.17 1.89H3.72zm7.58-1.69h.63l-.63.7zm3.39-8.93l-2.05 1.22-1.35-1.59 1.32-2.09zM3.14 1.03l1.37 2-1.44 1.63-2-1.32zM1.03 13.72l2.11-1.25h.08l1.35 1.47-1.42 2zm12.93 2.26l-1.31-2.12 1.25-1.38 2.08 1.25z" fill="#fff"/></svg><svg data-name="Layer 1" width="21.14" height="21.14" viewBox="-2 -2 21.14 21.14" id="diamond-search-sprite.RD" x="135.8" y="63.03" xmlns="http://www.w3.org/2000/svg"><path d="M8.57 0a8.57 8.57 0 1 0 8.57 8.57A8.57 8.57 0 0 0 8.57 0zm7.57 8.57a7.54 7.54 0 0 1-.21 1.72l-1.58-1.58 1.63-1.63a7.57 7.57 0 0 1 .15 1.48zM1.37 10.88l1.82-1.81 1.33 1.33v1.89H1.99a7.52 7.52 0 0 1-.62-1.41zM1 8.56a7.57 7.57 0 0 1 .19-1.52l1.64 1.67-1.64 1.61A7.54 7.54 0 0 1 1 8.56zm14.84-2L14 8.4l-1.34-1.34V5.14h2.64a7.5 7.5 0 0 1 .54 1.37zm-10.83.72L7.1 5.19h3l2.09 2.04v3l-2.09 2.09h-3l-2.09-2.09zm-.5 2.46l-1-1 1-1zm8.15-2l1 1-1 1zm-.47-1.22L10.8 5.13h1.39zM10.3 4.63L8.94 3.3l1.94-1.94a7.53 7.53 0 0 1 1.31.55v2.73zm-.71 0h-2l1-1zm-2.67 0H5.01V1.89a7.52 7.52 0 0 1 1.31-.55L8.19 3.3zm-.5.5L5.03 6.52V5.14zM4.53 7.02L3.19 8.36 1.3 6.48a7.51 7.51 0 0 1 .53-1.34h2.69zm.5 3.88l1.39 1.39H5.01zm1.87 1.91l1.29 1.31-1.67 1.69a7.52 7.52 0 0 1-1.51-.6v-2.4zm.71 0h2l-1 1zm2.67 0h1.91v2.43a7.52 7.52 0 0 1-1.51.61l-1.71-1.71zm.5-.5l1.41-1.41v1.39zm1.89-1.89l1.34-1.34 1.77 1.73a7.52 7.52 0 0 1-.59 1.48h-2.52zm2.36-5.76h-2.36V2.21a7.61 7.61 0 0 1 2.35 2.43zm-4.7-3.45L8.59 2.95 6.84 1.2a7.31 7.31 0 0 1 3.49 0zm-5.81 1v2.45H2.11a7.61 7.61 0 0 1 2.4-2.48zm-2.23 10.6h2.22v2.15a7.62 7.62 0 0 1-2.22-2.15zM7.08 16l1.5-1.5 1.5 1.5a7.56 7.56 0 0 1-3 0zm5.58-1.07v-2.12h2.18a7.62 7.62 0 0 1-2.17 2.1z" fill="#192852"/></svg><svg data-name="Layer 1" width="29.95" height="25.35" viewBox="-2 -2 29.95 25.35" id="diamond-search-sprite.RD-360" x="59.91" y="28.52" xmlns="http://www.w3.org/2000/svg"><path d="M13.59 14.9L18.1 18l-4.51 3.35v-2.47h-.61C6.7 18.88 1.46 17.5.26 15.66a1.45 1.45 0 0 1-.26-.8c0-1.2 1.72-2.28 4.44-3v.72c-1.76.51-2.85 1.19-2.85 1.93a.89.89 0 0 0 .14.43 2.7 2.7 0 0 0 1.21 1c1.89.91 5.56 1.53 9.79 1.53h.83zm11.66-1.31a9.5 9.5 0 0 0-3.78-1.73v.85a6.19 6.19 0 0 1 1.84.89 1.24 1.24 0 0 1 .58.92c0 .42-.34.81-.95 1.17a9.13 9.13 0 0 1-2.26.88v1.53c3.19-.73 5.27-1.9 5.27-3.22a1.8 1.8 0 0 0-.71-1.29z" fill="#f27a21"/><path d="M12.77 0a8.56 8.56 0 0 0-5 15.52c.79.08 1.63.14 2.5.18a7.35 7.35 0 0 1-1.06-.45v-2.42h1.89l1.33 1.33-1.59 1.59h.75l1.21-1.21v-.78l-.94-.94h2l-.65.65.42.29.94-.94h1.89v2.43l-.39.18.95.65A8.57 8.57 0 0 0 12.77 0zm4.1 2.22a7.61 7.61 0 0 1 2.36 2.43h-2.36zm0 2.93h2.64a7.5 7.5 0 0 1 .54 1.38L18.21 8.4l-1.34-1.34zm0 2.59l1 1-1 1zM12.77 1a7.54 7.54 0 0 1 1.76.22L12.8 3l-1.75-1.76A7.54 7.54 0 0 1 12.77 1zm1 3.64h-2l1-1zM5.21 8.6a7.57 7.57 0 0 1 .15-1.52l1.67 1.67-1.61 1.61a7.54 7.54 0 0 1-.21-1.76zM8.72 15a7.62 7.62 0 0 1-2.22-2.15h2.22zm0-2.65H6.2a7.52 7.52 0 0 1-.61-1.43l1.8-1.82 1.33 1.33zm0-2.59l-1-1 1-1zm0-2.67L7.39 8.4 5.5 6.52a7.51 7.51 0 0 1 .53-1.34h2.69zm0-2.39h-2.4a7.61 7.61 0 0 1 2.4-2.45zm.49-2.75a7.52 7.52 0 0 1 1.31-.55l1.94 1.94-1.35 1.33H9.22V1.93zm1.38 3.22L9.2 6.56V5.17zM9.2 12.32v-1.38l1.39 1.39zm7.15 0h-1.37l1.39-1.39zm0-2.09l-2.09 2.09h-3l-2.09-2.09v-3l2.09-2.09h3l2.09 2.09zm0-3.67l-1.37-1.39h1.39zm0-1.89h-1.87l-1.33-1.33 1.94-1.94a7.53 7.53 0 0 1 1.28.55zM16.87 15v-2.17h2.18A7.62 7.62 0 0 1 16.87 15zm2.48-2.62h-2.48v-1.94l1.34-1.34 1.78 1.78a7.52 7.52 0 0 1-.64 1.45zm-.76-3.63l1.63-1.63a7.41 7.41 0 0 1-.06 3.21z" fill="#192852"/></svg><svg data-name="Layer 1" width="21.14" height="21.14" viewBox="-2 -2 21.14 21.14" id="diamond-search-sprite.RD-red" x="135.8" y="84.17" xmlns="http://www.w3.org/2000/svg"><path d="M8.57 0a8.57 8.57 0 1 0 8.57 8.57A8.57 8.57 0 0 0 8.57 0zm7.57 8.57a7.54 7.54 0 0 1-.21 1.72l-1.58-1.58 1.63-1.63a7.57 7.57 0 0 1 .15 1.48zM1.37 10.88l1.82-1.81 1.33 1.33v1.89H1.99a7.52 7.52 0 0 1-.62-1.41zM1 8.56a7.57 7.57 0 0 1 .19-1.52l1.64 1.67-1.64 1.61A7.54 7.54 0 0 1 1 8.56zm14.84-2L14 8.4l-1.34-1.34V5.14h2.64a7.5 7.5 0 0 1 .54 1.37zm-10.83.72L7.1 5.19h3l2.09 2.04v3l-2.09 2.09h-3l-2.09-2.09zm-.5 2.46l-1-1 1-1zm8.15-2l1 1-1 1zm-.47-1.22L10.8 5.13h1.39zM10.3 4.63L8.94 3.3l1.94-1.94a7.53 7.53 0 0 1 1.31.55v2.73zm-.71 0h-2l1-1zm-2.67 0H5.01V1.89a7.52 7.52 0 0 1 1.31-.55L8.19 3.3zm-.5.5L5.03 6.52V5.14zM4.53 7.02L3.19 8.36 1.3 6.48a7.51 7.51 0 0 1 .53-1.34h2.69zm.5 3.88l1.39 1.39H5.01zm1.87 1.91l1.29 1.31-1.67 1.69a7.52 7.52 0 0 1-1.51-.6v-2.4zm.71 0h2l-1 1zm2.67 0h1.91v2.43a7.52 7.52 0 0 1-1.51.61l-1.71-1.71zm.5-.5l1.41-1.41v1.39zm1.89-1.89l1.34-1.34 1.77 1.73a7.52 7.52 0 0 1-.59 1.48h-2.52zm2.36-5.76h-2.36V2.21a7.61 7.61 0 0 1 2.35 2.43zm-4.7-3.45L8.59 2.95 6.84 1.2a7.31 7.31 0 0 1 3.49 0zm-5.81 1v2.45H2.11a7.61 7.61 0 0 1 2.4-2.48zm-2.23 10.6h2.22v2.15a7.62 7.62 0 0 1-2.22-2.15zM7.08 16l1.5-1.5 1.5 1.5a7.56 7.56 0 0 1-3 0zm5.58-1.07v-2.12h2.18a7.62 7.62 0 0 1-2.17 2.1z" fill="#EB1000"/></svg><svg data-name="Layer 1" width="21.14" height="21.14" viewBox="-2 -2 21.14 21.14" id="diamond-search-sprite.RD-white" x="135.8" y="105.31" xmlns="http://www.w3.org/2000/svg"><path d="M8.57 0a8.57 8.57 0 1 0 8.57 8.57A8.57 8.57 0 0 0 8.57 0zm7.57 8.57a7.54 7.54 0 0 1-.21 1.72l-1.58-1.58 1.63-1.63a7.57 7.57 0 0 1 .15 1.48zM1.37 10.88l1.82-1.81 1.33 1.33v1.89H1.99a7.52 7.52 0 0 1-.62-1.41zM1 8.56a7.57 7.57 0 0 1 .19-1.52l1.64 1.67-1.64 1.61A7.54 7.54 0 0 1 1 8.56zm14.84-2L14 8.4l-1.34-1.34V5.14h2.64a7.5 7.5 0 0 1 .54 1.37zm-10.83.72L7.1 5.19h3l2.09 2.04v3l-2.09 2.09h-3l-2.09-2.09zm-.5 2.46l-1-1 1-1zm8.15-2l1 1-1 1zm-.47-1.22L10.8 5.13h1.39zM10.3 4.63L8.94 3.3l1.94-1.94a7.53 7.53 0 0 1 1.31.55v2.73zm-.71 0h-2l1-1zm-2.67 0H5.01V1.89a7.52 7.52 0 0 1 1.31-.55L8.19 3.3zm-.5.5L5.03 6.52V5.14zM4.53 7.02L3.19 8.36 1.3 6.48a7.51 7.51 0 0 1 .53-1.34h2.69zm.5 3.88l1.39 1.39H5.01zm1.87 1.91l1.29 1.31-1.67 1.69a7.52 7.52 0 0 1-1.51-.6v-2.4zm.71 0h2l-1 1zm2.67 0h1.91v2.43a7.52 7.52 0 0 1-1.51.61l-1.71-1.71zm.5-.5l1.41-1.41v1.39zm1.89-1.89l1.34-1.34 1.77 1.73a7.52 7.52 0 0 1-.59 1.48h-2.52zm2.36-5.76h-2.36V2.21a7.61 7.61 0 0 1 2.35 2.43zm-4.7-3.45L8.59 2.95 6.84 1.2a7.31 7.31 0 0 1 3.49 0zm-5.81 1v2.45H2.11a7.61 7.61 0 0 1 2.4-2.48zm-2.23 10.6h2.22v2.15a7.62 7.62 0 0 1-2.22-2.15zM7.08 16l1.5-1.5 1.5 1.5a7.56 7.56 0 0 1-3 0zm5.58-1.07v-2.12h2.18a7.62 7.62 0 0 1-2.17 2.1z" fill="#fff"/></svg><svg data-name="Layer 1" width="29.22" height="16.26" viewBox="-2 -2 29.22 16.26" id="diamond-search-sprite.three-sixty-blue" x="89.86" y="56.01" xmlns="http://www.w3.org/2000/svg"><g data-name="360-Blue" fill="#192852"><path d="M14.22 9.231l.72.71-.55.55-1.77 1.77v-1.74c-7 0-12.62-1.71-12.62-3.83 0-1.35 2.3-2.54 5.78-3.22v.65c-2.55.53-4.2 1.35-4.2 2.27 0 1.59 4.85 2.87 10.83 2.87h.21v-1.61zm6-5.58v.77c1.84.51 3 1.21 3 2 0 1.17-2.63 2.18-6.41 2.63a.33.33 0 0 0-.29.38 2.83 2.83 0 0 1 0 .4v.28a.21.21 0 0 0 .23.23c4.93-.57 8.47-1.97 8.47-3.65 0-1.24-1.95-2.34-5-3.04z"/><path data-name="360" d="M9.37 3.711a1.3 1.3 0 0 1 .28.84 1.63 1.63 0 0 1-.52 1.22 1.8 1.8 0 0 1-1.3.5 1.79 1.79 0 0 1-1.22-.42 1.66 1.66 0 0 1-.56-1.08l1-.12a1 1 0 0 0 .26.59.73.73 0 0 0 1.05 0 1 1 0 0 0 .22-.66.88.88 0 0 0-.21-.62.67.67 0 0 0-.51-.23 1.81 1.81 0 0 0-.48.08l.11-.85a.91.91 0 0 0 .64-.18.65.65 0 0 0 .22-.52.56.56 0 0 0-.6-.6.63.63 0 0 0-.45.18.87.87 0 0 0-.23.54l-1-.16a2.14 2.14 0 0 1 .3-.79 1.36 1.36 0 0 1 .56-.46 1.89 1.89 0 0 1 .81-.17 1.61 1.61 0 0 1 1.23.49 1.24 1.24 0 0 1-.4 2 1.26 1.26 0 0 1 .8.42zm4.53-.56a1.8 1.8 0 0 1 .46 1.28 1.83 1.83 0 0 1-.49 1.34 1.78 1.78 0 0 1-2.6-.13 3.28 3.28 0 0 1-.53-2.09 3.34 3.34 0 0 1 .55-2.15 1.78 1.78 0 0 1 1.43-.63 1.52 1.52 0 0 1 1 .35 1.62 1.62 0 0 1 .52 1l-1 .11a.73.73 0 0 0-.19-.46.56.56 0 0 0-.4-.15.68.68 0 0 0-.56.3 2.49 2.49 0 0 0-.29 1.23 1.21 1.21 0 0 1 1-.46 1.47 1.47 0 0 1 1.1.46zm-.55 1.29a1.19 1.19 0 0 0-.21-.77.67.67 0 0 0-1 0 1 1 0 0 0-.21.69 1.18 1.18 0 0 0 .23.78.69.69 0 0 0 .53.28.61.61 0 0 0 .48-.23 1.14 1.14 0 0 0 .17-.75zm5-3.15a3.59 3.59 0 0 1 .53 2.21 3.59 3.59 0 0 1-.53 2.21 1.48 1.48 0 0 1-1.23.55 1.55 1.55 0 0 1-1.28-.61 3.59 3.59 0 0 1-.48-2.17 3.58 3.58 0 0 1 .53-2.2 1.63 1.63 0 0 1 2.46 0zm-.56 2.21a5.9 5.9 0 0 0-.1-1.31.94.94 0 0 0-.24-.48.51.51 0 0 0-.33-.12.52.52 0 0 0-.34.12.81.81 0 0 0-.23.43 5.94 5.94 0 0 0-.11 1.36 5.89 5.89 0 0 0 .1 1.31.92.92 0 0 0 .24.48.53.53 0 0 0 .67 0 .81.81 0 0 0 .23-.43 5.89 5.89 0 0 0 .15-1.36zm4.14-2.33a1.18 1.18 0 1 1-.35-.83 1.14 1.14 0 0 1 .38.83zm-.61 0a.57.57 0 1 0-.17.4.54.54 0 0 0 .2-.4z"/></g></svg><svg data-name="Layer 1" width="29.22" height="16.27" viewBox="-2 -2 29.22 16.27" id="diamond-search-sprite.three-sixty-orange" x="59.9" y="54.5" xmlns="http://www.w3.org/2000/svg"><g data-name="360-Orange"><path d="M14.22 9.241l.72.71-.55.55-1.77 1.77v-1.74c-7 0-12.62-1.71-12.62-3.83 0-1.35 2.3-2.54 5.78-3.22v.65c-2.55.53-4.2 1.35-4.2 2.27 0 1.59 4.85 2.87 10.83 2.87h.21v-1.61zm6-5.58v.77c1.84.51 3 1.21 3 2 0 1.17-2.63 2.18-6.41 2.63a.33.33 0 0 0-.29.38 2.84 2.84 0 0 1 0 .4v.28a.21.21 0 0 0 .23.23c4.93-.56 8.47-1.98 8.47-3.65 0-1.24-1.95-2.34-5-3.04z" fill="#f27a21"/><path data-name="360" d="M9.37 3.711a1.3 1.3 0 0 1 .28.84 1.63 1.63 0 0 1-.52 1.24 1.8 1.8 0 0 1-1.3.5 1.79 1.79 0 0 1-1.22-.42 1.66 1.66 0 0 1-.56-1.08l1-.12a1 1 0 0 0 .26.59.73.73 0 0 0 1.05 0 1 1 0 0 0 .22-.66.88.88 0 0 0-.21-.62.67.67 0 0 0-.51-.23 1.81 1.81 0 0 0-.48.08l.11-.85a.91.91 0 0 0 .64-.18.65.65 0 0 0 .22-.52.56.56 0 0 0-.6-.6.63.63 0 0 0-.45.18.87.87 0 0 0-.23.54l-1-.16a2.14 2.14 0 0 1 .3-.79 1.36 1.36 0 0 1 .56-.46 1.89 1.89 0 0 1 .81-.17 1.61 1.61 0 0 1 1.23.49 1.24 1.24 0 0 1-.4 2 1.26 1.26 0 0 1 .8.4zm4.53-.56a1.8 1.8 0 0 1 .46 1.28 1.83 1.83 0 0 1-.49 1.36 1.78 1.78 0 0 1-2.6-.13 3.28 3.28 0 0 1-.53-2.09 3.34 3.34 0 0 1 .55-2.15 1.78 1.78 0 0 1 1.43-.66 1.52 1.52 0 0 1 1 .35 1.62 1.62 0 0 1 .52 1l-1 .11a.73.73 0 0 0-.19-.46.56.56 0 0 0-.4-.15.68.68 0 0 0-.56.3 2.49 2.49 0 0 0-.29 1.23 1.21 1.21 0 0 1 1-.46 1.47 1.47 0 0 1 1.1.48zm-.55 1.29a1.19 1.19 0 0 0-.21-.77.67.67 0 0 0-1 0 1 1 0 0 0-.21.69 1.18 1.18 0 0 0 .23.78.69.69 0 0 0 .53.28.61.61 0 0 0 .48-.23 1.14 1.14 0 0 0 .17-.74zm5-3.15a3.59 3.59 0 0 1 .53 2.21 3.59 3.59 0 0 1-.53 2.21 1.48 1.48 0 0 1-1.23.55 1.55 1.55 0 0 1-1.28-.61 3.59 3.59 0 0 1-.48-2.17 3.58 3.58 0 0 1 .53-2.2 1.63 1.63 0 0 1 2.46 0zm-.56 2.21a5.89 5.89 0 0 0-.1-1.31.94.94 0 0 0-.24-.48.51.51 0 0 0-.33-.12.52.52 0 0 0-.34.12.81.81 0 0 0-.23.43 5.94 5.94 0 0 0-.11 1.36 5.89 5.89 0 0 0 .1 1.31.92.92 0 0 0 .24.47.53.53 0 0 0 .67 0 .81.81 0 0 0 .23-.43 5.89 5.89 0 0 0 .15-1.34zm4.14-2.33a1.18 1.18 0 1 1-.35-.83 1.14 1.14 0 0 1 .38.84zm-.61 0a.57.57 0 1 0-.17.4.54.54 0 0 0 .2-.39z" fill="#192852"/></g></svg></svg>