<svg xmlns="http://www.w3.org/2000/svg" width="89.011" height="89.011" viewBox="0 0 89.011 89.011"><defs><style>.a{opacity:0.1;}</style></defs><path class="a" d="M88.8,35.307H58.2V4.71a2.782,2.782,0,0,0-2.782-2.782H38.732A2.782,2.782,0,0,0,35.95,4.71v30.6H5.352a2.782,2.782,0,0,0-2.782,2.782v16.69A2.782,2.782,0,0,0,5.352,57.56h30.6v30.6a2.782,2.782,0,0,0,2.782,2.782h16.69A2.782,2.782,0,0,0,58.2,88.158V57.56H88.8a2.782,2.782,0,0,0,2.782-2.782V38.089A2.782,2.782,0,0,0,88.8,35.307Z" transform="translate(-2.571 -1.928)"/></svg>