<svg xmlns="http://www.w3.org/2000/svg" width="18.646" height="22" viewBox="0 0 18.646 22"><defs><style>.a{fill:#179bd7;}.b{fill:#222d65;}.c{fill:#253b80;}</style></defs><path class="a" d="M20.358,7.667h0q-.035.226-.081.462c-1.04,5.338-4.6,7.181-9.139,7.181H8.825a1.123,1.123,0,0,0-1.11.951h0l-1.184,7.51L6.2,25.9a.592.592,0,0,0,.584.684h4.1a.987.987,0,0,0,.975-.832l.04-.208.772-4.9.05-.269a.986.986,0,0,1,.975-.834h.614c3.974,0,7.086-1.614,8-6.283.38-1.951.183-3.579-.822-4.725a3.922,3.922,0,0,0-1.123-.866Z" transform="translate(-3.837 -4.585)"/><path class="b" d="M19.56,7.08q-.238-.069-.491-.126t-.52-.1a12.845,12.845,0,0,0-2.039-.149H10.331a.985.985,0,0,0-.974.834L8.043,15.866,8,16.109a1.123,1.123,0,0,1,1.11-.951h2.313c4.543,0,8.1-1.845,9.139-7.181.031-.158.057-.312.081-.462a5.542,5.542,0,0,0-.855-.361c-.076-.025-.154-.05-.233-.073Z" transform="translate(-4.127 -2.258)"/><path class="c" d="M6.9,5.506A.841.841,0,0,1,7.73,4.8h5.275a11,11,0,0,1,1.741.127q.228.036.444.084t.419.107l.2.062a4.811,4.811,0,0,1,.73.307,4.279,4.279,0,0,0-.913-3.856C14.622.488,12.81,0,10.492,0H3.761a.961.961,0,0,0-.951.81l-2.8,17.71a.577.577,0,0,0,.57.667H4.733l1.043-6.6Z"/></svg>