<svg xmlns="http://www.w3.org/2000/svg" width="75.22" height="70.794" viewBox="0 0 75.22 70.794"><defs><style>.a{opacity:0.162;}</style></defs><g class="a" transform="translate(0 -13.148)"><path d="M74.786,26.65A2.413,2.413,0,0,0,72.91,25.62L26.25,23.609a2.413,2.413,0,0,0-.207,4.822l43.5,1.875L60.991,56.993H22.928L16.051,19.55a2.413,2.413,0,0,0-1.492-1.81L3.3,13.315a2.414,2.414,0,0,0-1.766,4.493l10.014,3.934,7,38.1a2.414,2.414,0,0,0,2.374,1.977h1.161l-2.651,7.363a2.011,2.011,0,0,0,1.892,2.692h1.859a7.24,7.24,0,1,0,10.762,0H49.727a7.24,7.24,0,1,0,10.762,0H62.75a2.011,2.011,0,1,0,0-4.022H24.181l2.172-6.034h36.4a2.413,2.413,0,0,0,2.3-1.677L75.1,28.767A2.408,2.408,0,0,0,74.786,26.65ZM28.56,79.92A3.218,3.218,0,1,1,31.778,76.7,3.221,3.221,0,0,1,28.56,79.92Zm26.548,0A3.218,3.218,0,1,1,58.326,76.7,3.221,3.221,0,0,1,55.108,79.92Z" transform="translate(0)"/></g></svg>