<svg xmlns="http://www.w3.org/2000/svg" xmlns:xlink="http://www.w3.org/1999/xlink" width="50" height="20" viewBox="0 0 50 20"><defs><style>.a{fill:#fff;}.b{fill:#f5f5f5;}.c{clip-path:url(#a);}.d{fill:#016fd0;}</style><clipPath id="a"><rect class="a" width="50" height="20" rx="2" transform="translate(168 2391)"/></clipPath></defs><g transform="translate(-168 -2391)"><rect class="b" width="50" height="20" rx="2" transform="translate(168 2391)"/><g class="c"><g transform="translate(112.5 1376.681)"><path class="a" d="M249.14,1548.524v-7.689h8.142l.874,1.139.9-1.139H288.61v7.159a3.413,3.413,0,0,1-1.667.53H270.58l-.985-1.212v1.212h-3.227v-2.069a2.709,2.709,0,0,1-1.394.289h-1.1v1.78h-4.886l-.872-1.163-.886,1.163Z" transform="translate(-184.132 -515.049)"/><path class="a" d="M55.5,1339.9l1.836-4.28h3.175l1.042,2.4v-2.4H65.5l.62,1.733.6-1.733H84.44v.871a3.822,3.822,0,0,1,2.462-.871l5.749.02,1.024,2.366v-2.386h3.3l.909,1.359v-1.359h3.333v7.689H97.887l-.871-1.364v1.364H92.163l-.488-1.212h-1.3l-.48,1.212H86.6a3.253,3.253,0,0,1-2.159-.853v.853H79.477l-.985-1.212v1.212H60.041l-.488-1.212h-1.3l-.484,1.212H55.5Z" transform="translate(0 -319.913)"/><path class="d" d="M58.169,1354.929l-2.476,5.758h1.612l.457-1.153h2.656l.455,1.153h1.648l-2.474-5.758Zm.916,1.34.81,2.015H58.273Z" transform="translate(-0.183 -338.271)"/><path class="d" d="M198.223,1360.667v-5.758l2.291.009,1.333,3.712,1.3-3.721h2.273v5.758H203.98v-4.243l-1.526,4.243h-1.262l-1.53-4.243v4.243Z" transform="translate(-135.715 -338.253)"/><path class="d" d="M364.861,1360.667v-5.758h4.7v1.288h-3.242v.985h3.167v1.212h-3.167v1.023h3.242v1.25Z" transform="translate(-294.172 -338.253)"/><path class="d" d="M477.5,1354.929v5.758h1.439v-2.046h.606l1.726,2.046h1.759l-1.894-2.121a1.753,1.753,0,0,0,1.579-1.768,1.862,1.862,0,0,0-2.012-1.868Zm1.439,1.288h1.645a.661.661,0,0,1,.682.606.651.651,0,0,1-.661.606h-1.667Z" transform="translate(-401.277 -338.271)"/><path class="d" d="M597.156,1360.667h-1.47v-5.758h1.47Z" transform="translate(-513.664 -338.253)"/><path class="d" d="M642.676,1360.667h-.317c-1.535,0-2.467-1.209-2.467-2.855a2.638,2.638,0,0,1,2.86-2.9h1.591v1.364h-1.649a1.385,1.385,0,0,0-1.343,1.553,1.409,1.409,0,0,0,1.553,1.583h.379Z" transform="translate(-555.699 -338.253)"/><path class="d" d="M712.428,1354.929l-2.476,5.758h1.612l.457-1.153h2.656l.455,1.153h1.648l-2.474-5.758Zm.916,1.34.81,2.015h-1.622Z" transform="translate(-622.318 -338.271)"/><path class="d" d="M852.433,1360.667v-5.758h1.83l2.337,3.617v-3.617h1.439v5.758h-1.771l-2.4-3.712v3.712Z" transform="translate(-757.804 -338.253)"/><path class="d" d="M269.2,1565.879v-5.758h4.7v1.288h-3.242v.985h3.167v1.212h-3.167v1.023H273.9v1.25Z" transform="translate(-203.206 -533.389)"/><path class="d" d="M737.947,1565.879v-5.758h4.7v1.288H739.4v.985h3.152v1.212H739.4v1.023h3.242v1.25Z" transform="translate(-648.939 -533.389)"/><path class="d" d="M367.52,1565.879l2.287-2.843-2.341-2.914h1.813l1.394,1.8,1.4-1.8h1.742L371.5,1563l2.291,2.879h-1.813l-1.354-1.773-1.321,1.773Z" transform="translate(-296.648 -533.389)"/><path class="d" d="M499.869,1560.141v5.758h1.477v-1.818h1.515a1.991,1.991,0,0,0,2.254-2,1.9,1.9,0,0,0-2.067-1.937Zm1.477,1.3h1.6a.65.65,0,0,1,.71.663.664.664,0,0,1-.715.663h-1.591Z" transform="translate(-422.551 -533.408)"/><path class="d" d="M619.448,1560.121v5.758h1.439v-2.046h.606l1.726,2.046h1.759l-1.894-2.121a1.754,1.754,0,0,0,1.579-1.769,1.862,1.862,0,0,0-2.012-1.868Zm1.439,1.288h1.645a.661.661,0,0,1,.682.606.65.65,0,0,1-.661.606h-1.667Z" transform="translate(-536.258 -533.389)"/><path class="d" d="M843.648,1565.879v-1.25h2.881c.426,0,.611-.23.611-.483s-.184-.487-.611-.487h-1.3a1.61,1.61,0,0,1-1.762-1.724c0-.923.577-1.813,2.259-1.813h2.8l-.606,1.3H845.5c-.463,0-.606.243-.606.475a.5.5,0,0,0,.53.5h1.364a1.579,1.579,0,0,1,1.809,1.652,1.726,1.726,0,0,1-1.877,1.832Z" transform="translate(-749.276 -533.389)"/><path class="d" d="M951.244,1565.879v-1.25h2.881c.426,0,.611-.23.611-.483s-.184-.487-.611-.487h-1.3a1.61,1.61,0,0,1-1.762-1.724c0-.923.577-1.813,2.259-1.813h2.8l-.606,1.3h-2.424c-.463,0-.606.243-.606.475a.5.5,0,0,0,.53.5h1.364a1.579,1.579,0,0,1,1.809,1.652,1.726,1.726,0,0,1-1.877,1.832Z" transform="translate(-851.59 -533.389)"/></g></g></g></svg>