<svg xmlns="http://www.w3.org/2000/svg" width="93.924" height="22.935" viewBox="0 0 93.924 22.935"><defs><style>.a{fill:#253b80;}.b{fill:#179bd7;}.c{fill:#222d65;}</style></defs><g transform="translate(0)"><path class="a" d="M43.679,6.749h-5.2a.722.722,0,0,0-.714.61l-2.1,13.328a.433.433,0,0,0,.429.5h2.481a.722.722,0,0,0,.714-.61l.567-3.595a.722.722,0,0,1,.713-.61h1.645c3.424,0,5.4-1.657,5.916-4.94a4,4,0,0,0-.663-3.355,4.822,4.822,0,0,0-3.789-1.327Zm.6,4.868c-.284,1.865-1.709,1.865-3.087,1.865h-.784L40.957,10a.433.433,0,0,1,.428-.366h.359c.939,0,1.824,0,2.281.535a1.732,1.732,0,0,1,.252,1.449Zm14.937-.06H56.726a.433.433,0,0,0-.428.366l-.11.7-.174-.252a3.543,3.543,0,0,0-2.94-1.043,5.724,5.724,0,0,0-5.557,5.005,4.7,4.7,0,0,0,.927,3.824,3.894,3.894,0,0,0,3.135,1.266,4.762,4.762,0,0,0,3.445-1.425l-.111.692a.433.433,0,0,0,.427.5h2.242a.722.722,0,0,0,.714-.61l1.345-8.519a.432.432,0,0,0-.426-.5ZM55.746,16.4a2.774,2.774,0,0,1-2.808,2.376,1.928,1.928,0,0,1-2.062-2.42,2.786,2.786,0,0,1,2.789-2.4,2.1,2.1,0,0,1,1.66.678A2.154,2.154,0,0,1,55.746,16.4Zm16.725-4.844h-2.5a.725.725,0,0,0-.6.317l-3.45,5.081L64.46,12.072a.724.724,0,0,0-.693-.515H61.309a.433.433,0,0,0-.411.573l2.755,8.085-2.59,3.656a.433.433,0,0,0,.353.684h2.5a.721.721,0,0,0,.594-.31l8.319-12.008a.433.433,0,0,0-.356-.68Z" transform="translate(-8.559 -1.62)"/><path class="b" d="M92.46,6.749h-5.2a.722.722,0,0,0-.713.61l-2.1,13.328a.432.432,0,0,0,.427.5h2.668a.505.505,0,0,0,.5-.427l.6-3.778a.722.722,0,0,1,.713-.61h1.645c3.425,0,5.4-1.657,5.917-4.94a4,4,0,0,0-.663-3.355A4.817,4.817,0,0,0,92.46,6.749Zm.6,4.868c-.283,1.865-1.708,1.865-3.087,1.865h-.784L89.74,10a.432.432,0,0,1,.427-.366h.359c.938,0,1.824,0,2.281.535a1.732,1.732,0,0,1,.252,1.449ZM108,11.556h-2.487a.431.431,0,0,0-.427.366l-.11.7-.175-.252a3.541,3.541,0,0,0-2.939-1.043A5.723,5.723,0,0,0,96.3,16.328a4.7,4.7,0,0,0,.926,3.824,3.9,3.9,0,0,0,3.135,1.266,4.762,4.762,0,0,0,3.445-1.425l-.111.692a.433.433,0,0,0,.429.5h2.241a.722.722,0,0,0,.713-.61l1.346-8.519a.434.434,0,0,0-.429-.5ZM104.526,16.4a2.773,2.773,0,0,1-2.808,2.376,1.928,1.928,0,0,1-2.062-2.42,2.787,2.787,0,0,1,2.789-2.4,2.1,2.1,0,0,1,1.66.678A2.143,2.143,0,0,1,104.526,16.4Zm6.4-9.286L108.8,20.686a.432.432,0,0,0,.427.5h2.145a.721.721,0,0,0,.714-.61l2.1-13.327a.433.433,0,0,0-.427-.5h-2.4a.434.434,0,0,0-.427.366Z" transform="translate(-20.267 -1.62)"/><path class="a" d="M5.777,22.4l.4-2.525-.885-.021H1.061L4,1.228a.24.24,0,0,1,.239-.2h7.129c2.367,0,4,.492,4.853,1.464A3.339,3.339,0,0,1,17,3.945,5.26,5.26,0,0,1,17,5.955l-.009.059v.514l.4.226a2.8,2.8,0,0,1,.809.617,2.873,2.873,0,0,1,.657,1.473,6.23,6.23,0,0,1-.093,2.137,7.526,7.526,0,0,1-.876,2.419A4.976,4.976,0,0,1,16.5,14.92a5.627,5.627,0,0,1-1.868.843,9.316,9.316,0,0,1-2.335.27h-.555a1.669,1.669,0,0,0-1.65,1.408l-.042.227-.7,4.45-.032.163a.141.141,0,0,1-.044.095A.118.118,0,0,1,9.2,22.4H5.777Z" transform="translate(-0.255 -0.246)"/><path class="b" d="M19,7.667q-.032.2-.073.418c-.94,4.827-4.156,6.494-8.264,6.494H8.573a1.016,1.016,0,0,0-1,.86L6.5,22.231l-.3,1.925a.535.535,0,0,0,.528.619h3.71a.893.893,0,0,0,.882-.752l.036-.188.7-4.432.045-.243a.892.892,0,0,1,.882-.754h.555c3.594,0,6.407-1.459,7.23-5.682a4.838,4.838,0,0,0-.743-4.273A3.547,3.547,0,0,0,19,7.667Z" transform="translate(-1.485 -1.84)"/><path class="c" d="M18.454,7.044a7.415,7.415,0,0,0-.914-.2A11.616,11.616,0,0,0,15.7,6.707H10.109a.891.891,0,0,0-.881.754L8.039,14.989l-.034.22a1.015,1.015,0,0,1,1-.86H11.1c4.108,0,7.324-1.668,8.264-6.494.028-.143.052-.282.073-.418a5.011,5.011,0,0,0-.773-.326q-.1-.035-.211-.066Z" transform="translate(-1.921 -1.61)"/><path class="a" d="M7.307,5.851A.888.888,0,0,1,8.187,5.1h5.587a11.616,11.616,0,0,1,1.844.135,7.415,7.415,0,0,1,1.126.268,5.087,5.087,0,0,1,.773.326,4.559,4.559,0,0,0-.967-4.1C15.487.518,13.568,0,11.113,0H3.984A1.019,1.019,0,0,0,2.977.861L.008,19.682a.613.613,0,0,0,.6.708h4.4L6.118,13.38,7.307,5.851Z" transform="translate(0 0)"/></g></svg>