<svg xmlns="http://www.w3.org/2000/svg" xmlns:xlink="http://www.w3.org/1999/xlink" width="50" height="20" viewBox="0 0 50 20"><defs><style>.a,.g{fill:#fff;}.b{fill:#f5f5f5;}.c{opacity:0.9;clip-path:url(#a);}.d{fill:#382a8d;}.d,.e,.f,.g{fill-rule:evenodd;}.e{fill:#1d8546;}.f{fill:#ec6b00;}</style><clipPath id="a"><rect class="a" width="50" height="20" rx="2" transform="translate(168 2391)"/></clipPath></defs><g transform="translate(-168 -2391)"><rect class="b" width="50" height="20" rx="2" transform="translate(168 2391)"/><g class="c"><g transform="translate(161.055 2386.768)"><path class="d" d="M41238.523,70774.7h2.7v4.313l2.355-4.312h2.48l-5.02,8.711a4.419,4.419,0,0,1-1.039,1.117,2.2,2.2,0,0,1-1.238.3h-2.187l.578-2.086h.938a.95.95,0,0,0,.594-.25,1.035,1.035,0,0,0,.227-.7c0-.437-.387-7.1-.387-7.1Zm-28.187.852a1.6,1.6,0,0,1-1.535.789h-1.367l.5-1.875s1.215.016,1.8.016c.648,0,.848.508.6,1.07Zm3.109-1.258c.223-1.82-1.383-2.3-3.148-2.3h-4.586l-2.707,9.891h2.906l.93-3.359h1.625a.641.641,0,0,1,.7.617c.012.68-.5,1.922-.477,2.742h3v-.266a.358.358,0,0,1-.223-.414,7.744,7.744,0,0,1,.387-1.227,3.965,3.965,0,0,0,.3-1.453c-.02-.648-.445-.961-1.047-1.164,1.867-.445,2.344-3.062,2.344-3.062Zm.664.406h2.652l-1.09,4.227s-.285.938.6,1c.7.078,1.219-.758,1.379-1.312.223-.742,1.09-3.914,1.09-3.914h2.742l-2.086,7.18h-2.387l.289-1.023a3.764,3.764,0,0,1-3.031,1.289c-1.617-.156-1.758-1.3-1.477-2.758C41212.934,70778.664,41214.109,70774.7,41214.109,70774.7Zm13.66.883a1.363,1.363,0,0,1-1.426.93h-1.426l.563-2.094h1.5a.8.8,0,0,1,.785,1.164Zm3-.977c.238-1.844-1.164-2.617-2.906-2.617h-4.6l-2.711,9.891h2.922l.824-3.047,2.328.016s3.594.164,4.145-4.242Zm2.465,5.82c-.461.109-1.023.18-1.133-.234-.3-1.148,2.363-1.469,2.363-1.469a1.839,1.839,0,0,1-1.23,1.7Zm4.008-2.094c.359-1.172.8-2.32.445-2.953-.555-.961-1.535-1.039-2.98-1.039-1.59,0-3.562.313-4.207,2.445h2.656a1.169,1.169,0,0,1,1.238-.758c.883.031.836.648.512,1.008-.57.57-2.145.234-3.9.852a2.935,2.935,0,0,0-1.723,3.328c.32.773.918.852,1.723.93a3.586,3.586,0,0,0,2.754-.992c0,.461.008.727.008.727h2.8l-.012-.266a.365.365,0,0,1-.219-.414c.02-.266.5-1.484.9-2.867Z" transform="translate(-41196.059 -70763.063)"/><path class="e" d="M252515.172,75852.008l-3.156,10.883,5.906-5.445Z" transform="translate(-252461.672 -75842.039)"/><path class="f" d="M242746.125,75852.008l-3.125,10.883,5.859-5.445Z" transform="translate(-242694.672 -75842.039)"/><path class="g" d="M280582.281,65706.109a1.074,1.074,0,0,0-1.094,1.078,1.092,1.092,0,0,0,1.094,1.094,1.107,1.107,0,0,0,1.063-1.094A1.087,1.087,0,0,0,280582.281,65706.109Zm-.031,1.523v-.844h.094l.219.609c0,.047.031.086.031.117,0-.031,0-.078.094-.141l.219-.586h.094v.844h-.094v-.711l-.219.711h-.125l-.25-.711v.711Zm-.562,0v-.75h-.219v-.094h.625v.094h-.281v.75Zm.594.742a1.192,1.192,0,1,1,0-2.383,1.192,1.192,0,0,1,0,2.383Z" transform="translate(-280525 -65698.109)"/></g></g></g></svg>