<svg xmlns="http://www.w3.org/2000/svg" width="58" height="58" viewBox="0 0 58 58"><defs><style>.a{fill:#382a8d;}.b{fill:#fff;}.b,.c,.d{fill-rule:evenodd;}.c{fill:#1d8546;}.d{fill:#ec6b00;}</style></defs><g transform="translate(-380 -190)"><rect class="a" width="58" height="58" rx="4" transform="translate(380 190)"/><g transform="translate(382.055 206.117)"><path class="b" d="M41230.59,70774.094h2.094v3.352l1.828-3.352h1.93l-3.9,6.766a3.315,3.315,0,0,1-.809.875,1.709,1.709,0,0,1-.961.242h-1.7l.449-1.625h.73a.78.78,0,0,0,.461-.2.815.815,0,0,0,.176-.547c0-.336-.3-5.516-.3-5.516Zm-21.891.664a1.235,1.235,0,0,1-1.2.617h-1.059l.387-1.453s.945.016,1.4.016c.5,0,.656.383.469.82Zm2.41-.969c.172-1.422-1.074-1.789-2.441-1.789h-3.562l-2.105,7.672h2.262l.719-2.6,1.262.008s.531-.031.539.469c.008.523-.391,1.492-.367,2.125h2.328v-.2a.27.27,0,0,1-.172-.32,5.738,5.738,0,0,1,.3-.953,2.988,2.988,0,0,0,.234-1.125c-.016-.516-.348-.75-.812-.914,1.449-.336,1.816-2.367,1.816-2.367Zm.516.3h2.063l-.848,3.289s-.219.727.469.781c.539.055.945-.594,1.07-1.031.172-.578.848-3.039.848-3.039h2.129l-1.621,5.578h-1.855l.227-.789a2.932,2.932,0,0,1-2.355,1.008c-1.254-.125-1.363-1.016-1.145-2.156C41210.715,70777.172,41211.625,70774.094,41211.625,70774.094Zm10.613.688a1.075,1.075,0,0,1-1.109.734h-1.105l.434-1.633h1.168a.619.619,0,0,1,.613.9Zm2.328-.758c.188-1.43-.9-2.023-2.258-2.023h-3.574l-2.105,7.672h2.27l.641-2.359,1.809.008s2.789.125,3.219-3.3Zm1.914,4.523c-.359.086-.793.141-.879-.187-.23-.883,1.836-1.141,1.836-1.141a1.434,1.434,0,0,1-.957,1.328Zm3.113-1.625c.277-.914.621-1.8.348-2.3-.434-.734-1.2-.8-2.316-.8-1.238,0-2.77.234-3.27,1.9h2.063a.909.909,0,0,1,.965-.586c.688.031.648.508.4.773-.445.453-1.668.2-3.027.672a2.28,2.28,0,0,0-1.34,2.586c.25.594.715.664,1.34.727a2.785,2.785,0,0,0,2.137-.781c0,.359.008.563.008.563h2.176l-.008-.2a.278.278,0,0,1-.172-.32c.016-.2.391-1.148.7-2.227Z" transform="translate(-41196.055 -70763.305)"/><path class="c" d="M252514.469,75852l-2.437,8.453,4.563-4.234Z" transform="translate(-252471.375 -75842.5)"/><path class="d" d="M242745.438,75852l-2.437,8.453,4.563-4.234Z" transform="translate(-242703.906 -75842.5)"/><path class="b" d="M280582,65706.086a.848.848,0,0,0-.875.844.857.857,0,0,0,.875.844.845.845,0,0,0,.813-.844A.834.834,0,0,0,280582,65706.086Zm-.031,1.188v-.656h.094l.156.469c0,.039.031.07.031.094a.122.122,0,0,1,.063-.109l.156-.453h.094v.656h-.094v-.555l-.156.555h-.094l-.187-.555v.555Zm-.437,0v-.578h-.187v-.078h.5v.078h-.219v.578Zm.469.578a.927.927,0,1,1,0-1.852.927.927,0,0,1,0,1.852Z" transform="translate(-280535.938 -65698.117)"/></g></g></svg>