<svg xmlns="http://www.w3.org/2000/svg" width="58" height="58" viewBox="0 0 58 58"><defs><style>.a{fill:#0a579f;}.b{fill:#fff;}.c{fill:#faa61a;}</style></defs><g transform="translate(-380 -190)"><rect class="a" width="58" height="58" rx="4" transform="translate(380 190)"/><g transform="translate(307.834 107.952)"><path class="b" d="M436.747,123.258h-3.24l2.027-12.532h3.24Z" transform="translate(-338.248 -5.452)"/><path class="b" d="M574.9,105.581a7.985,7.985,0,0,0-2.906-.534c-3.2,0-5.453,1.706-5.467,4.146-.027,1.8,1.613,2.8,2.84,3.4,1.254.613,1.68,1.014,1.68,1.56-.013.84-1.013,1.227-1.946,1.227a6.449,6.449,0,0,1-3.04-.667l-.427-.2-.453,2.813a9.861,9.861,0,0,0,3.614.667c3.4,0,5.613-1.68,5.64-4.28.013-1.427-.853-2.52-2.72-3.413-1.133-.573-1.827-.96-1.827-1.547.013-.533.587-1.08,1.866-1.08a5.505,5.505,0,0,1,2.414.48l.293.133.441-2.706Z" transform="translate(-464.653)"/><path class="b" d="M795.535,118.819c.267-.72,1.294-3.506,1.294-3.506-.013.027.266-.733.426-1.2l.226,1.08s.614,3,.747,3.626Zm4-8.092h-2.506a1.6,1.6,0,0,0-1.694,1.04l-4.813,11.492h3.4l.68-1.88h4.16c.093.44.387,1.88.387,1.88h3l-2.614-12.531Z" transform="translate(-680.983 -5.452)"/><path class="b" d="M173.836,110.727l-3.173,8.545-.347-1.733a9.592,9.592,0,0,0-4.48-5.253l2.907,10.959h3.427l5.093-12.518Z" transform="translate(-81.283 -5.452)"/><path class="c" d="M86.432,110.727H81.219l-.053.253c4.067,1.04,6.76,3.547,7.867,6.56L87.9,111.78a1.341,1.341,0,0,0-1.467-1.053Z" transform="translate(0 -5.452)"/></g></g></svg>