<svg xmlns="http://www.w3.org/2000/svg" width="8.391" height="8.391" viewBox="0 0 8.391 8.391"><defs><style>.a{opacity:0.2;}</style></defs><path class="a" d="M10.885,8.669h0L8.34,6.124l2.546-2.546h0a.263.263,0,0,0,0-.371L9.683,2a.263.263,0,0,0-.371,0h0L6.766,4.55,4.221,2h0A.263.263,0,0,0,3.85,2l-1.2,1.2a.263.263,0,0,0,0,.371h0L5.193,6.124,2.647,8.669h0a.263.263,0,0,0,0,.371l1.2,1.2a.263.263,0,0,0,.371,0h0L6.766,7.7l2.546,2.546h0a.263.263,0,0,0,.371,0l1.2-1.2a.263.263,0,0,0,0-.371Z" transform="translate(-2.571 -1.928)"/></svg>