<svg xmlns="http://www.w3.org/2000/svg" width="24.771" height="24.765" viewBox="0 0 24.771 24.765"><defs><style>.a{fill:#ff8074;}</style></defs><path class="a" d="M12.383,8.271a6.349,6.349,0,1,0,6.35,6.349A6.339,6.339,0,0,0,12.383,8.271Zm0,10.477a4.128,4.128,0,1,1,4.128-4.128A4.136,4.136,0,0,1,12.383,18.748Zm8.09-10.737A1.481,1.481,0,1,1,18.992,6.53,1.478,1.478,0,0,1,20.473,8.011Zm4.205,1.5a7.329,7.329,0,0,0-2-5.189,7.377,7.377,0,0,0-5.189-2c-2.045-.116-8.173-.116-10.218,0A7.367,7.367,0,0,0,2.082,4.32a7.353,7.353,0,0,0-2,5.189c-.116,2.045-.116,8.173,0,10.218a7.329,7.329,0,0,0,2,5.189,7.387,7.387,0,0,0,5.189,2c2.045.116,8.173.116,10.218,0a7.329,7.329,0,0,0,5.189-2,7.377,7.377,0,0,0,2-5.189c.116-2.045.116-8.168,0-10.212ZM22.037,21.92a4.179,4.179,0,0,1-2.354,2.354c-1.63.647-5.5.5-7.3.5s-5.675.144-7.3-.5A4.179,4.179,0,0,1,2.729,21.92c-.647-1.63-.5-5.5-.5-7.3s-.144-5.675.5-7.3A4.179,4.179,0,0,1,5.083,4.966c1.63-.647,5.5-.5,7.3-.5s5.675-.144,7.3.5A4.179,4.179,0,0,1,22.037,7.32c.647,1.63.5,5.5.5,7.3S22.684,20.3,22.037,21.92Z" transform="translate(0.005 -2.238)"/></svg>