<svg xmlns="http://www.w3.org/2000/svg" width="24.246" height="24.246" viewBox="0 0 24.246 24.246"><defs><style>.a{fill:#ff8074;}</style></defs><path class="a" d="M21.648,2.25H2.6A2.6,2.6,0,0,0,0,4.848V23.9a2.6,2.6,0,0,0,2.6,2.6h19.05a2.6,2.6,0,0,0,2.6-2.6V4.848A2.6,2.6,0,0,0,21.648,2.25ZM19,10.844c.011.152.011.308.011.46a10.03,10.03,0,0,1-10.1,10.1,10.052,10.052,0,0,1-5.45-1.591,7.478,7.478,0,0,0,.855.043A7.117,7.117,0,0,0,8.724,18.34a3.554,3.554,0,0,1-3.318-2.462,3.825,3.825,0,0,0,1.6-.065,3.55,3.55,0,0,1-2.841-3.485v-.043a3.547,3.547,0,0,0,1.6.449,3.542,3.542,0,0,1-1.58-2.955,3.505,3.505,0,0,1,.482-1.791A10.079,10.079,0,0,0,11.988,11.7a3.557,3.557,0,0,1,6.056-3.242A6.955,6.955,0,0,0,20.3,7.6a3.54,3.54,0,0,1-1.559,1.954A7.064,7.064,0,0,0,20.782,9,7.471,7.471,0,0,1,19,10.844Z" transform="translate(0 -2.25)"/></svg>