<svg xmlns="http://www.w3.org/2000/svg" width="24.245" height="24.245" viewBox="0 0 24.245 24.245"><defs><style>.a{fill:#ff8074;}</style></defs><path class="a" d="M22.743,1.928H6.643A4.084,4.084,0,0,0,2.571,6V22.1a4.084,4.084,0,0,0,4.072,4.072h16.1A4.084,4.084,0,0,0,26.816,22.1V6a4.084,4.084,0,0,0-4.072-4.072Zm-11.081,19.7H8.632V11.02h3.031V21.627ZM10.147,9.5a1.515,1.515,0,1,1,1.515-1.515A1.515,1.515,0,0,1,10.147,9.5ZM22.27,21.627H19.239V15.566a1.515,1.515,0,0,0-3.031,0v6.061H13.178V11.02h3.031V12.9c.625-.859,1.58-1.882,2.652-1.882a3.614,3.614,0,0,1,3.409,3.788v6.819Z" transform="translate(-2.571 -1.928)"/></svg>