<svg xmlns="http://www.w3.org/2000/svg" width="98.477" height="127.391" viewBox="0 0 98.477 127.391"><defs><style>.a{fill:#161328;}.b{fill:#ff8074;}</style></defs><path class="a" d="M454.076,362.948l.05.454,15.922-11.9-8.685-9.276-8.036,20.719Z" transform="translate(-383.849 -342.229)"/><path class="a" d="M445,362.948h.749l-8.036-20.719-8.685,9.276,15.922,11.9Z" transform="translate(-416.704 -342.229)"/><path class="a" d="M441.079,351.68,432.894,421.5h55.7L480.36,351.68Z" transform="translate(-411.481 -329.448)"/><path class="b" d="M461.837,427.258,481.5,447.422,469.674,346.9l-15.922,11.948Z" transform="translate(-383.276 -335.911)"/><path class="a" d="M478.645,362.948l7.986-20.719H433.424l7.986,20.719Z" transform="translate(-410.764 -342.229)"/><path class="b" d="M451.669,358.848,435.747,346.9,423.918,447.422l19.666-20.165Z" transform="translate(-423.619 -335.911)"/><path class="a" d="M457.813,382h-1.048l9.583,33.827,11.33-13.46Z" transform="translate(-379.201 -288.44)"/><path class="a" d="M438.87,382l-9.583,33.827h72.672L492.326,382Z" transform="translate(-416.359 -288.44)"/><path class="a" d="M443.706,382l-19.915,20.366,11.38,13.46L444.754,382Z" transform="translate(-423.791 -288.44)"/></svg>