<svg xmlns="http://www.w3.org/2000/svg" width="93.83" height="127.391" viewBox="0 0 93.83 127.391"><defs><style>.a{fill:#161328;}.b{fill:#ff8074;}</style></defs><path class="a" d="M316.052,484.567c-5.138,8.329-12.694,15.613-22.237,18.362a28.365,28.365,0,0,1-6.608,1.134h-.085v8.547c26.038-.958,46.937-29.133,46.937-63.718H325.6C325.6,461.278,322.572,474.013,316.052,484.567Z" transform="translate(-240.229 -385.218)"/><path class="a" d="M308.381,500.517a30.6,30.6,0,0,1-3.368-.741c-8.9-2.572-15.977-9.465-20.727-17.226-5.83-9.42-8.722-20.629-9.111-31.707h7.167c0-.436-.043-.871-.043-1.309H264.079c.517,33.409,20.509,60.535,45.6,62.322v-18.49c-.431-.045-.863-.132-1.294-.218Z" transform="translate(-264.079 -384.552)"/><path class="a" d="M289.054,435.985v-6.978a29.717,29.717,0,0,1,3.411.741c8.852,2.574,15.934,9.465,20.727,17.228,5.83,9.42,8.722,20.627,9.111,31.663h-4.361a12.731,12.731,0,0,0,.045,1.307H333.4c-.519-33.407-20.511-60.489-45.643-62.322V435.94h.13A10.155,10.155,0,0,1,289.054,435.985Z" transform="translate(-239.571 -417.58)"/><path class="b" d="M297.42,514.581a17.454,17.454,0,0,0,10.061,0c16.624-4.8,23.791-27.827,23.791-43.309s-7.167-38.466-23.791-43.307a18.48,18.48,0,0,0-10.061,0c-16.581,4.841-23.751,27.825-23.751,43.307S280.838,509.782,297.42,514.581Zm.344-85.35c.173-.045.346-.088.476-.132l30.572,53.513a55.045,55.045,0,0,1-2.031,7.851l-33.81-59.137A19.51,19.51,0,0,1,297.763,429.231Zm-12.391,8.9L321.6,501.541c-3.455,5.407-8.205,9.986-14.465,11.775a15.3,15.3,0,0,1-4.664.7,6.755,6.755,0,0,1-.95-.043l-26.469-46.229C275.743,457.8,279.111,446.152,285.372,438.128Z" transform="translate(-254.153 -407.599)"/><path class="a" d="M314.973,483.913c6.39-10.381,9.326-22.853,9.326-35.022h-5.655c0,16.18-7.558,39.6-24.7,44.573a19.019,19.019,0,0,1-5.4.785c-.474,0-.95-.045-1.424-.045v8.549a28.421,28.421,0,0,0,6.347-1.091C302.667,499,310.008,491.938,314.973,483.913Z" transform="translate(-240.229 -385.218)"/><path class="a" d="M282.085,445.6c5.138-8.331,12.694-15.57,22.237-18.362a28.3,28.3,0,0,1,6.608-1.091h.043V417.6c-26.038.961-46.893,29.09-46.893,63.673h8.462C272.541,468.89,275.565,456.2,282.085,445.6Z" transform="translate(-264.079 -417.602)"/><path class="a" d="M306.009,430.994v-8.549a28.393,28.393,0,0,0-6.3,1.048c-9.2,2.66-16.539,9.768-21.5,17.794-6.39,10.378-9.326,22.853-9.326,34.976h8.464c0-16.178,7.513-39.556,24.7-44.528A17.708,17.708,0,0,1,306.009,430.994Z" transform="translate(-259.116 -412.59)"/></svg>