<svg xmlns="http://www.w3.org/2000/svg" width="81.693" height="127.391" viewBox="0 0 81.693 127.391"><defs><style>.a{fill:#ff8074;}.b{fill:#161328;}</style></defs><path class="a" d="M320.006,119.571V32.721H278.4v86.85ZM295.893,34.915l22.4,46.668v12.97L289.625,34.915Zm-15.772,0h1.363l36.8,76.691v6.125H302.514L280.121,71.014Z" transform="translate(-258.332 -12.45)"/><path class="b" d="M288.53,130.06V43.209h-.607L269.977,25.134v123l17.946-18.075Z" transform="translate(-269.977 -22.939)"/><path class="b" d="M296.5,43.209V130.06h.607L315,148.135v-123l-17.9,18.075Z" transform="translate(-233.31 -22.939)"/><path class="b" d="M333.168,42.951l18.5-18.738H269.977L288.53,42.951Z" transform="translate(-269.977 -24.213)"/><path class="b" d="M288.53,69.818,269.977,88.556H351.67l-18.5-18.739Z" transform="translate(-269.977 38.835)"/></svg>