<svg xmlns="http://www.w3.org/2000/svg" width="126.128" height="127.391" viewBox="0 0 126.128 127.391"><defs><style>.a{fill:#141515;}.b{fill:#ff8074;}.c{fill:#161328;}</style></defs><path class="a" d="M99.113,276.649H44.659a6.907,6.907,0,0,0-6.877,6.948v55a6.907,6.907,0,0,0,6.877,6.948H99.113a6.907,6.907,0,0,0,6.877-6.948v-55A6.907,6.907,0,0,0,99.113,276.649Zm.055,56.47a5.516,5.516,0,0,1-5.478,5.533H50.081a5.514,5.514,0,0,1-5.478-5.533V289.072a5.514,5.514,0,0,1,5.478-5.533H93.69a5.516,5.516,0,0,1,5.478,5.533Z" transform="translate(-8.822 -247.4)"/><path class="b" d="M58.953,279.907,41.007,323.614v4.179a3.861,3.861,0,0,0,3.8,3.839H56.271l21.245-51.724Z" transform="translate(-3.549 -242.073)"/><path class="c" d="M61.476,293.106a8.632,8.632,0,0,1,8.553,8.64v.677l27.284-15.361a21.438,21.438,0,0,0-21.3-21.513L60.8,293.106Z" transform="translate(28.815 -265.548)"/><path class="b" d="M72.729,280.036,51.6,331.42H55.79l19.118-46.642v-1.244A3.9,3.9,0,0,0,72.729,280.036Z" transform="translate(13.76 -241.863)"/><path class="c" d="M100.023,293.1l15.207-27.556H35.618L50.824,293.1Z" transform="translate(-12.36 -265.548)"/><path class="c" d="M50.824,303.438,35.618,330.995H115.23l-15.207-27.556Z" transform="translate(-12.36 -203.604)"/><path class="c" d="M70.029,300.613a8.632,8.632,0,0,1-8.553,8.64H60.8l15.208,27.558a21.486,21.486,0,0,0,21.3-21.571L70.029,299.881Z" transform="translate(28.815 -209.419)"/><path class="c" d="M54.072,301.745a8.632,8.632,0,0,1,8.555-8.64h.727L48.146,265.548a21.485,21.485,0,0,0-21.355,21.513l27.281,15.361Z" transform="translate(-26.79 -265.548)"/><path class="c" d="M64.305,339.514l27.283,15.359v-80.41L64.305,289.823Z" transform="translate(34.539 -250.972)"/><path class="c" d="M54.074,289.823,26.791,274.464v80.41l27.283-15.359Z" transform="translate(-26.791 -250.972)"/><path class="c" d="M62.627,309.253a8.632,8.632,0,0,1-8.555-8.64v-.732L26.791,315.239a21.533,21.533,0,0,0,21.355,21.571l15.208-27.558Z" transform="translate(-26.79 -209.419)"/></svg>