<svg xmlns="http://www.w3.org/2000/svg" width="126.078" height="127.391" viewBox="0 0 126.078 127.391"><defs><style>.a{fill:#161328;}.b{fill:#ff8074;}</style></defs><path class="a" d="M247.941,283.143a55.589,55.589,0,0,0-39.6-16.566V291.9a30.8,30.8,0,0,1,21.9,9.176Z" transform="translate(-145.274 -259.5)"/><path class="a" d="M201.823,273.349a56.934,56.934,0,0,0-16.4,40.054h25.071a31.327,31.327,0,0,1,9.083-22.124Z" transform="translate(-178.415 -249.706)"/><path class="a" d="M194.448,285.125a57.045,57.045,0,0,1,37.995-15.886h.054v-5.555a62.686,62.686,0,0,0-41.94,17.561l3.841,3.88Z" transform="translate(-170.989 -263.684)"/><path class="a" d="M249.084,286.226l3.841-3.88a62.576,62.576,0,0,0-44.587-18.662v5.5a56.971,56.971,0,0,1,40.7,17.038Z" transform="translate(-145.274 -263.684)"/><path class="a" d="M225.418,275.7h.051A58.208,58.208,0,0,1,241.2,314.07v.054h5.45a64.039,64.039,0,0,0-17.336-42.361l-3.843,3.88Z" transform="translate(-120.571 -252)"/><path class="a" d="M251.394,289.723H226.322a31.282,31.282,0,0,1-9.031,22.121l17.7,17.879A56.492,56.492,0,0,0,251.394,289.723Z" transform="translate(-132.324 -226.026)"/><path class="a" d="M235.468,273.821l-17.752,17.928a31.2,31.2,0,0,1,7.992,19.4h25.071A56.725,56.725,0,0,0,235.468,273.821Z" transform="translate(-131.71 -249.024)"/><path class="a" d="M208.974,307.267v25.323a55.428,55.428,0,0,0,36.955-15.467L228.179,299.2A30.577,30.577,0,0,1,208.974,307.267Z" transform="translate(-144.352 -212.327)"/><path class="a" d="M200.734,327.692l17.75-17.928a31.443,31.443,0,0,1-7.94-19.4H185.421A57.078,57.078,0,0,0,200.734,327.692Z" transform="translate(-178.415 -225.098)"/><path class="a" d="M192.126,316.645a55.543,55.543,0,0,0,39.656,16.617V307.942a30.938,30.938,0,0,1-21.9-9.176Z" transform="translate(-168.718 -212.948)"/><path class="a" d="M247.02,306.975l-.051.051a57.045,57.045,0,0,1-37.995,15.886v5.5a62.359,62.359,0,0,0,41.887-17.51l-3.841-3.88Z" transform="translate(-144.352 -201.076)"/><path class="b" d="M254.92,307.2a29.277,29.277,0,1,0-29.276,29.567A29.424,29.424,0,0,0,254.92,307.2Zm-21.49-26.9,16.04,41.155a24.889,24.889,0,0,1-1.817,2.725l-17.388-44.614A31.529,31.529,0,0,1,233.43,280.309ZM225.644,335.2a27.3,27.3,0,0,1-7.732-1.1l-16.091-41.26a28.145,28.145,0,0,1,15.311-12.319l20.3,52.006A27.126,27.126,0,0,1,225.644,335.2Z" transform="translate(-162.58 -243.508)"/><path class="a" d="M229.55,291.921V266.6a55.433,55.433,0,0,0-36.957,15.414l17.7,17.931A30.814,30.814,0,0,1,229.55,291.921Z" transform="translate(-168.043 -259.47)"/><path class="a" d="M241.842,289.723a58.338,58.338,0,0,1-16.869,41.153h.051l3.841,3.88a64.015,64.015,0,0,0,18.427-45.032h-5.45Z" transform="translate(-121.214 -226.026)"/><path class="a" d="M204.876,275.193l-3.843-3.88a63.749,63.749,0,0,0-18.476,45.035H188A58.331,58.331,0,0,1,204.876,275.193Z" transform="translate(-182.557 -252.651)"/><path class="a" d="M190.11,310.426A62.4,62.4,0,0,0,234.7,329.088v-5.5a57.289,57.289,0,0,1-40.744-17.038Z" transform="translate(-171.634 -201.696)"/><path class="a" d="M203.734,328.741A58.333,58.333,0,0,1,188,290.419v-.054h-5.448a63.815,63.815,0,0,0,17.388,42.307l3.841-3.877Z" transform="translate(-182.557 -225.098)"/></svg>