<svg xmlns="http://www.w3.org/2000/svg" width="82.358" height="129.694" viewBox="0 0 82.358 129.694"><defs><style>.a{fill:#161328;}.a,.b{fill-rule:evenodd;}.b{fill:#ff8074;}</style></defs><g transform="translate(82.358 129.694) rotate(-180)"><path class="a" d="M29.4,63.232V0C17.788,21.571,7.317,37.827,0,51.5l16.829,16.95A20.864,20.864,0,0,1,29.4,63.232Z" transform="translate(10.427 2.586)"/><path class="a" d="M31.415,55.333C23.825,40.922,12.53,23.556,0,0V65.77a20.793,20.793,0,0,1,14.907,6.235Z" transform="translate(41.202 0)"/><path class="a" d="M20.075,31.73A21.411,21.411,0,0,1,26.25,16.672L9.786,0C3.7,11.592,0,21.291,0,30.9,0,44.385,4.483,54.732,11.3,61.936l14.954-15.1A21.52,21.52,0,0,1,20.075,31.73Z" transform="translate(0 55.333)"/><path class="a" d="M0,6.235V27.527A41.08,41.08,0,0,0,29.862,15.1L14.907,0A20.794,20.794,0,0,1,0,6.235Z" transform="translate(41.202 102.166)"/><path class="a" d="M0,15.151A41.041,41.041,0,0,0,27.53,26.605V5.267A20.65,20.65,0,0,1,14.954,0Z" transform="translate(12.302 103.089)"/><path class="a" d="M16.235,0,0,16.4A21.435,21.435,0,0,1,5.259,30.437,21.465,21.465,0,0,1,0,44.523l14.954,15.1c6.31-7.157,10.334-17.181,10.334-30.021C25.288,20.368,21.9,10.991,16.235,0Z" transform="translate(57.07 56.626)"/><path class="b" d="M0,19.769A19.619,19.619,0,1,0,19.618,0,19.713,19.713,0,0,0,0,19.769ZM27.53,7.9a3.788,3.788,0,1,1-3.75,3.787A3.765,3.765,0,0,1,27.53,7.9Z" transform="translate(21.584 67.294)"/></g></svg>