<svg xmlns="http://www.w3.org/2000/svg" width="93.525" height="129.694" viewBox="0 0 93.525 129.694"><defs><style>.a{fill:#161328;}.b{fill:#ff8074;}</style></defs><path class="a" d="M293.976,159.011l6.005,14.61L322.7,150.678l-14.465-6.065Z" transform="translate(-230.372 -45.14)"/><path class="a" d="M300.256,120.545v66.878l14.465,6.065V114.48Z" transform="translate(-221.196 -89.164)"/><path class="a" d="M308.231,133.673l14.465-6.065-22.716-22.943-6.005,14.662Z" transform="translate(-230.372 -103.505)"/><path class="b" d="M290.364,110.773l-15.719,15.874v65.559l15.719,15.876h30.027l15.719-15.876V126.647l-15.719-15.874Zm29.244,94.882H299.085l-22.873-49.947V128.283l10.078-10.233,38.015,82.858Zm14.933-15.084-3.864,3.9L293.393,113.2H306.24l28.3,61.762Z" transform="translate(-258.615 -94.58)"/><path class="a" d="M297.34,119.327l-6.005-14.662-22.716,22.943,14.465,6.065Z" transform="translate(-267.418 -103.505)"/><path class="a" d="M282.6,120.545l-14.465-6.065v79.008l14.465-6.065Z" transform="translate(-268.131 -89.164)"/><path class="a" d="M315.622,118.8l6.005-14.61h-43.29l6.005,14.61Z" transform="translate(-253.22 -104.193)"/><path class="a" d="M283.084,144.612l-14.465,6.065,22.716,22.943,6.005-14.61Z" transform="translate(-267.418 -45.14)"/><path class="a" d="M284.343,150.956l-6.005,14.61h43.29l-6.005-14.61Z" transform="translate(-253.22 -35.872)"/></svg>