<svg xmlns="http://www.w3.org/2000/svg" width="93.919" height="129.694" viewBox="0 0 93.919 129.694"><defs><style>.a{fill:#161328;}.b{fill:#ff8074;}</style></defs><path class="a" d="M140.106,43.851l-19.231-11.58L107.719,58.846l26.358-.277Z" transform="translate(-107.719 -7.633)"/><path class="a" d="M141.467,56.472l26.266.323L155.9,32.849,136.533,44.476Z" transform="translate(-74.499 -6.966)"/><path class="a" d="M163.335,45.464l-33.8-24.638V50.955l14.572,6.09Z" transform="translate(-82.572 -20.826)"/><path class="a" d="M134.453,45.108l-26.586.323,9.593,41.662,21.881-30.128Z" transform="translate(-107.547 7.167)"/><path class="a" d="M145.627,50.989V21.276L114.381,44.068l19.643,11.765Z" transform="translate(-100.037 -20.307)"/><path class="a" d="M130.168,56.541v57.3l34.215-31.466-22.338-30.82Z" transform="translate(-81.838 14.603)"/><path class="a" d="M142.33,44.486,136.3,59.2l22.064,30.359,10.324-44.8Z" transform="translate(-74.768 6.45)"/><path class="b" d="M158.876,54.837,153.3,41.182,139.78,35.507l-13.522,5.675-5.617,13.656L126.258,68.5l13.522,5.628L153.3,68.5Zm-9.869-12.364a2.652,2.652,0,1,1-2.648,2.676A2.656,2.656,0,0,1,149.007,42.474Zm-3.059,14.349a4.842,4.842,0,1,1,4.842,4.891A4.868,4.868,0,0,1,145.948,56.822Z" transform="translate(-92.821 -3.902)"/><path class="a" d="M112.514,81.682l36.636,33.681V57.413l-14.572-6.09Z" transform="translate(-102.19 14.332)"/></svg>